<?xml version="1.0" encoding="UTF-8"?>
<svg version="1.1" xmlns="http://www.w3.org/2000/svg" width="512" height="512">
<path d="M0 0 C2.91185685 2.34189286 5.7692087 4.7287675 8.58984375 7.1796875 C9.10181305 7.59744949 9.61378235 8.01521149 10.14126587 8.44563293 C11.58251282 9.6508762 12.97207451 10.91805345 14.33798218 12.20805359 C23.13224481 19.83248697 30.30231892 20.25146277 41.63671875 20.02734375 C43.32762808 20.02792067 45.01854071 20.03277258 46.70942688 20.04164124 C51.13737697 20.0548506 55.5632938 20.01652082 59.99090576 19.96496582 C66.19773612 19.90174693 72.40492319 19.90787084 78.61201477 19.90834045 C81.90494581 19.90855778 85.19671569 19.88887601 88.48942566 19.85179138 C96.09643159 19.79013124 103.56935098 20.00180604 111.13208008 20.87329102 C112.13973309 20.98885676 112.13973309 20.98885676 113.16774273 21.10675716 C132.43212874 23.58360049 147.56011349 32.38404511 161 46 C161.75152344 46.7528125 162.50304687 47.505625 163.27734375 48.28125 C177.43625799 63.28263323 183.37578604 82.68875627 183.1953125 102.91015625 C183.19106766 104.72222816 183.19106766 104.72222816 183.18673706 106.57090759 C183.17560767 110.40154228 183.15051623 114.23193685 183.125 118.0625 C183.11496085 120.67122056 183.10583664 123.27994482 183.09765625 125.88867188 C183.07569205 132.2591955 183.04228695 138.62958058 183 145 C183.62080948 145.30208374 184.24161896 145.60416748 184.88124084 145.91540527 C187.10592164 147.05422139 188.90924977 148.3606873 190.87109375 149.90625 C191.60424805 150.48028564 192.33740234 151.05432129 193.09277344 151.64575195 C193.8665332 152.25765381 194.64029297 152.86955566 195.4375 153.5 C202.08182471 158.75598932 202.08182471 158.75598932 208.86328125 163.83203125 C209.44086182 164.25613281 210.01844238 164.68023437 210.61352539 165.1171875 C212.1364774 166.22958091 213.66942565 167.32825301 215.203125 168.42578125 C220.3649542 173.17668271 224.23156215 178.11565666 224.74946022 185.2961874 C224.77957169 187.28564494 224.77728034 189.2757671 224.7484436 191.26524353 C224.75639242 192.36843683 224.76434123 193.47163014 224.77253091 194.60825354 C224.79171299 198.28876489 224.7681821 201.96772623 224.74462891 205.64819336 C224.74948709 208.29340222 224.75669578 210.93851001 224.76675415 213.58369446 C224.78568551 220.01292911 224.77256998 226.4417133 224.74822827 232.87091439 C224.72091585 240.36544394 224.7242704 247.85986753 224.72849493 255.3544342 C224.7348683 268.73174297 224.71157737 282.10883846 224.67236328 295.48608398 C224.63436529 308.45197038 224.62018695 321.41760682 224.63134766 334.38354492 C224.64347813 348.51781962 224.64308133 362.65198455 224.62037599 376.78625017 C224.61796154 378.29501092 224.61554956 379.80377167 224.61314011 381.31253242 C224.61132949 382.42590407 224.61132949 382.42590407 224.6094823 383.56176807 C224.60174061 388.77948726 224.60250479 393.99716546 224.6063118 399.21488762 C224.61056719 405.57883451 224.60002151 411.9425631 224.57108469 418.30644863 C224.55665052 421.55031688 224.55055271 424.79380561 224.55757141 428.03770828 C224.56403779 431.56141189 224.54579596 435.08416673 224.52139282 438.60777283 C224.52895147 439.62306138 224.53651012 440.63834992 224.54429781 441.68440479 C224.41228008 452.49171943 220.78901058 460.05045124 213.3671875 467.80078125 C205.88682137 474.75036233 198.19142868 477.309378 187.95416641 477.27123547 C187.16935642 477.27623952 186.38454643 477.28124358 185.57595432 477.28639928 C182.94822771 477.30070685 180.32069489 477.30088287 177.69293213 477.30107117 C175.78906925 477.30838921 173.88520948 477.3165539 171.98135352 477.3254922 C166.75087763 477.34743675 161.52044311 477.35683458 156.28992891 477.36406267 C150.64832158 477.37393552 145.00675426 477.39512072 139.36517334 477.41456604 C125.74391266 477.4588127 112.12264335 477.48353842 98.50133097 477.5053539 C93.37189668 477.51381041 88.24246479 477.52340561 83.11303253 477.53300887 C60.50304983 477.57517139 37.8930679 477.6111553 15.28305435 477.63057232 C9.75152836 477.6353988 4.22000243 477.6402896 -1.31152344 477.64526367 C-2.34232159 477.64618026 -2.34232159 477.64618026 -3.39394395 477.64711537 C-25.67823794 477.6671671 -47.96227017 477.7215541 -70.24644507 477.79574114 C-93.81648367 477.87406563 -117.38631043 477.91945871 -140.95649362 477.92813712 C-153.80130651 477.9337175 -166.64571896 477.95423706 -179.49040985 478.01270103 C-190.42657578 478.06238256 -201.36225245 478.08147059 -212.29852077 478.06053879 C-217.87790359 478.05080074 -223.45626833 478.05562813 -229.0355072 478.09976578 C-234.14601485 478.13985278 -239.25476693 478.13818724 -244.36529949 478.10366461 C-246.21119164 478.09848266 -248.0572034 478.10844326 -249.90290734 478.1353062 C-260.28479632 478.2770827 -267.01350993 477.92088263 -274.87069345 470.31474906 C-275.57336461 469.55088187 -276.27603577 468.78701468 -277 468 C-277.68078291 467.33762587 -278.36156581 466.67525174 -279.06297851 465.99280566 C-286.7268677 458.10084564 -288.60190017 449.3009889 -288.50793457 438.58758545 C-288.51417453 437.48071546 -288.5204145 436.37384547 -288.52684355 435.23343396 C-288.54272109 431.5470036 -288.53018933 427.86123924 -288.51757812 424.17480469 C-288.52300144 421.52298063 -288.52998117 418.87120153 -288.53881836 416.21939087 C-288.55655378 409.7790368 -288.55278664 403.33886976 -288.5411678 396.89850852 C-288.53211719 391.66422908 -288.53091648 386.43000188 -288.53526306 381.19571686 C-288.53587599 380.44945656 -288.53648893 379.70319626 -288.53712043 378.93432201 C-288.53839938 377.41814173 -288.53969623 375.90196146 -288.5410108 374.3857812 C-288.55240118 360.18841032 -288.53932551 345.99114296 -288.51780933 331.79378906 C-288.49992501 319.61572952 -288.50305638 307.43782244 -288.52148438 295.25976562 C-288.54289302 281.1053934 -288.55131816 266.95111166 -288.53903532 252.79672551 C-288.53776116 251.28749038 -288.53650367 249.77825524 -288.53526306 248.26902008 C-288.53464596 247.52650446 -288.53402886 246.78398884 -288.53339306 246.01897274 C-288.52994123 240.78983533 -288.53576456 235.5607554 -288.54518127 230.33162689 C-288.55640194 223.96102225 -288.55335932 217.59061474 -288.5320583 211.22003266 C-288.5215508 207.97056293 -288.51957642 204.72148951 -288.53065491 201.47201157 C-288.54155961 197.94917156 -288.52790678 194.42726054 -288.50793457 190.90447998 C-288.51685746 189.87822219 -288.52578034 188.85196439 -288.53497362 187.79460788 C-288.45158479 180.22959887 -286.82571553 177.08215889 -281.71875 171.51171875 C-278.421259 168.4653298 -274.99800062 165.62436244 -271.5 162.8125 C-270.80237549 162.24950195 -270.10475098 161.68650391 -269.38598633 161.10644531 C-251.03382829 146.34460943 -251.03382829 146.34460943 -247 145 C-247.00888245 144.3464856 -247.01776489 143.69297119 -247.0269165 143.01965332 C-247.11628031 136.13998272 -247.17609873 129.26048028 -247.21972656 122.38037109 C-247.2396859 119.8220346 -247.26686311 117.26374278 -247.30175781 114.70556641 C-247.53146058 97.41705546 -247.6518573 81.24673672 -239.25 65.625 C-238.90565918 64.96419434 -238.56131836 64.30338867 -238.20654297 63.62255859 C-235.10463431 57.85179538 -231.43912587 52.82549423 -227 48 C-226.26265625 47.17113281 -225.5253125 46.34226563 -224.765625 45.48828125 C-209.13559727 28.81114382 -188.55798353 21.2004912 -166 20 C-160.93304838 19.95317864 -155.87179763 20.02392083 -150.80556679 20.10642242 C-145.66587165 20.17840042 -140.5255364 20.18315879 -135.38541889 20.20027542 C-130.90530197 20.21890107 -126.42773651 20.26081379 -121.94848633 20.35302734 C-97.04662389 21.82186135 -97.04662389 21.82186135 -75.68952942 11.0881958 C-74.62185042 9.97486476 -73.57584566 8.84022848 -72.55561829 7.68325806 C-69.87147328 4.77887672 -66.73927886 2.42307221 -63.625 0 C-63.05948425 -0.45085968 -62.49396851 -0.90171936 -61.91131592 -1.36624146 C-42.96592677 -16.17052998 -18.69995492 -13.78168267 0 0 Z " fill="#00B5F1" transform="translate(288,23)"/>
<path d="M0 0 C1.14161441 -0.00226556 2.28322882 -0.00453111 3.45943761 -0.00686532 C7.28150143 -0.01319104 11.10352967 -0.01237687 14.92559814 -0.0115509 C17.66736993 -0.0140003 20.40913923 -0.01791778 23.15090942 -0.02172852 C29.82390222 -0.03002336 36.49688618 -0.03278283 43.1698837 -0.03334089 C48.59630202 -0.03381663 54.02271743 -0.03587428 59.44913483 -0.03904152 C74.84656492 -0.04784513 90.24398806 -0.05246139 105.64142069 -0.05171105 C106.47093167 -0.05167109 107.30044265 -0.05163113 108.15509033 -0.05158997 C108.98561854 -0.05154909 109.81614675 -0.0515082 110.67184249 -0.05146609 C124.12728636 -0.05105976 137.58270223 -0.06062664 151.038138 -0.07472833 C164.86637647 -0.08910594 178.69460129 -0.09599775 192.52284741 -0.09513456 C200.2813849 -0.09480305 208.03989303 -0.0975297 215.79842377 -0.10831261 C222.40495378 -0.11743586 229.01144113 -0.11957792 235.61797473 -0.11280318 C238.98542764 -0.10954707 242.3527323 -0.11054366 245.72018814 -0.11815643 C249.37912375 -0.12589097 253.03784622 -0.12122165 256.69677734 -0.11352539 C257.74942677 -0.11866895 258.8020762 -0.12381252 259.8866241 -0.12911195 C280.61205937 -0.03312177 298.06321948 7.35631592 313.09844971 21.53605652 C329.98664165 39.05656766 333.23599332 60.82208089 333.66094971 84.05558777 C333.68099627 85.07403023 333.70104282 86.09247269 333.72169685 87.14177704 C333.82183714 92.51773193 333.89460983 97.89333144 333.94781494 103.26994324 C333.99691994 107.68931179 334.10181106 112.10201526 334.25543213 116.51896667 C334.44250263 121.90058668 334.53498314 127.27617632 334.56077766 132.66091156 C334.58563613 134.6947319 334.64254916 136.72844531 334.73348808 138.76038361 C335.27503005 151.58929774 335.27503005 151.58929774 332.60235596 157.13371277 C327.97699933 162.14587933 321.95716276 165.15558848 315.8636837 168.04175091 C312.85312562 169.49550506 310.08841806 171.20562911 307.26251221 172.98918152 C305.39786863 174.10194218 303.5319795 175.21261833 301.66485596 176.32121277 C299.53295743 177.59400042 297.40146287 178.86746489 295.27032471 180.14152527 C294.18283936 180.79153503 293.095354 181.4415448 291.97491455 182.11125183 C286.12875443 185.6170858 280.30257281 189.15572322 274.47735596 192.69621277 C273.88729767 193.05476349 273.29723938 193.41331421 272.68930054 193.7827301 C263.89436507 199.12751486 255.10365032 204.4792434 246.3135376 209.83195496 C238.85079561 214.37578369 231.38362329 218.9122973 223.91485596 223.44621277 C223.33015533 223.80115814 222.74545471 224.15610352 222.14303589 224.52180481 C217.36232442 227.42388374 212.58140369 230.32561788 207.80047607 233.2273407 C203.63017288 235.75847245 199.45995015 238.28973669 195.28985596 240.82121277 C194.7047525 241.17639984 194.11964905 241.53158691 193.51681519 241.89753723 C186.63745471 246.07387969 179.75927929 250.25215124 172.88653564 254.43937683 C171.04607082 255.55940716 169.20429412 256.67728493 167.36114502 257.79289246 C162.57794483 260.69164925 157.81636917 263.61976749 153.0864563 266.60450745 C150.53645826 268.21064854 147.97832211 269.80355367 145.41925049 271.39518738 C144.17693475 272.17256266 142.93839285 272.95600519 141.70391846 273.74577332 C139.98014859 274.84782869 138.24438252 275.92810419 136.50469971 277.00480652 C135.50946289 277.63314392 134.51422607 278.26148132 133.48883057 278.90885925 C129.92391656 280.42160336 128.2856608 280.23903624 124.60235596 279.13371277 C121.85186768 277.74186707 121.85186768 277.74186707 119.03204346 275.95793152 C117.98121582 275.30099304 116.93038818 274.64405457 115.84771729 273.96720886 C114.73549805 273.25903015 113.62327881 272.55085144 112.47735596 271.82121277 C111.30710294 271.08649266 110.13611387 270.35294371 108.9644165 269.62052917 C107.19058845 268.51166334 105.41715504 267.40223411 103.6459198 266.28923035 C98.60981761 263.1256286 93.52489507 260.0509249 88.41485596 257.00871277 C79.50317135 251.68543293 70.63407405 246.29415659 61.77032471 240.89152527 C55.15652587 236.86035892 48.53611586 232.8401063 41.91485596 228.82121277 C40.73296883 228.10376874 39.55108407 227.38632081 38.36920166 226.66886902 C34.78033742 224.49034466 31.19135733 222.31201121 27.60235596 220.13371277 C22.83141744 217.2380527 18.06054542 214.34228315 13.28985596 211.44621277 C12.7047525 211.0910257 12.11964905 210.73583862 11.51681519 210.36988831 C2.78180633 205.06701335 -5.94862059 199.75665289 -14.6762085 194.4415741 C-21.64861473 190.19621253 -28.62541441 185.95811794 -35.60379028 181.72257996 C-37.38128478 180.64364282 -39.15865405 179.56449971 -40.93597412 178.48527527 C-41.51659103 178.13271667 -42.09720795 177.78015808 -42.69541931 177.41691589 C-43.86193668 176.70858798 -45.02845077 176.00025467 -46.19496155 175.29191589 C-49.08407048 173.53774438 -51.97359589 171.78426511 -54.86395264 170.03215027 C-58.10508134 168.06720724 -61.34519735 166.10060397 -64.58514404 164.13371277 C-65.56547607 163.54009949 -66.54580811 162.94648621 -67.55584717 162.33488464 C-68.44594482 161.79412292 -69.33604248 161.25336121 -70.25311279 160.69621277 C-71.42329956 159.98658386 -71.42329956 159.98658386 -72.61712646 159.26261902 C-74.39764404 158.13371277 -74.39764404 158.13371277 -75.39764404 157.13371277 C-75.51425637 154.26604092 -75.56567215 151.42214623 -75.574646 148.5533905 C-75.58121719 147.65235596 -75.58778839 146.75132141 -75.59455872 145.82298279 C-75.61436867 142.8210899 -75.62598024 139.81924757 -75.63592529 136.81730652 C-75.64000082 135.79010057 -75.64407635 134.76289463 -75.64827538 133.70456123 C-75.66918313 128.25264307 -75.68345626 122.80075031 -75.69281006 117.34880066 C-75.70379757 111.75081385 -75.73809409 106.15323306 -75.77798176 100.55538845 C-75.80432623 96.22695249 -75.8125183 91.89860984 -75.81609154 87.57010078 C-75.82092299 85.50952012 -75.83243695 83.44894263 -75.85112953 81.38844109 C-76.06090077 56.70151769 -70.85519625 37.28728984 -53.31561279 18.95793152 C-38.44641583 4.75081383 -20.10277632 -0.02932556 0 0 Z " fill="#D6E4E7" transform="translate(127.39764404296875,54.86628723144531)"/>
<path d="M0 0 C2.91185685 2.34189286 5.7692087 4.7287675 8.58984375 7.1796875 C9.10181305 7.59744949 9.61378235 8.01521149 10.14126587 8.44563293 C11.58251282 9.6508762 12.97207451 10.91805345 14.33798218 12.20805359 C23.13224481 19.83248697 30.30231892 20.25146277 41.63671875 20.02734375 C43.32762808 20.02792067 45.01854071 20.03277258 46.70942688 20.04164124 C51.13737697 20.0548506 55.5632938 20.01652082 59.99090576 19.96496582 C66.19773612 19.90174693 72.40492319 19.90787084 78.61201477 19.90834045 C81.90494581 19.90855778 85.19671569 19.88887601 88.48942566 19.85179138 C96.09643159 19.79013124 103.56935098 20.00180604 111.13208008 20.87329102 C112.13973309 20.98885676 112.13973309 20.98885676 113.16774273 21.10675716 C132.43212874 23.58360049 147.56011349 32.38404511 161 46 C161.75152344 46.7528125 162.50304687 47.505625 163.27734375 48.28125 C177.43625799 63.28263323 183.37578604 82.68875627 183.1953125 102.91015625 C183.19106766 104.72222816 183.19106766 104.72222816 183.18673706 106.57090759 C183.17560767 110.40154228 183.15051623 114.23193685 183.125 118.0625 C183.11496085 120.67122056 183.10583664 123.27994482 183.09765625 125.88867188 C183.07569205 132.2591955 183.04228695 138.62958058 183 145 C183.62080948 145.30208374 184.24161896 145.60416748 184.88124084 145.91540527 C187.10592164 147.05422139 188.90924977 148.3606873 190.87109375 149.90625 C191.60424805 150.48028564 192.33740234 151.05432129 193.09277344 151.64575195 C193.8665332 152.25765381 194.64029297 152.86955566 195.4375 153.5 C202.08182471 158.75598932 202.08182471 158.75598932 208.86328125 163.83203125 C209.44086182 164.25613281 210.01844238 164.68023437 210.61352539 165.1171875 C212.1364774 166.22958091 213.66942565 167.32825301 215.203125 168.42578125 C220.3649542 173.17668271 224.23156215 178.11565666 224.74946022 185.2961874 C224.77957169 187.28564494 224.77728034 189.2757671 224.7484436 191.26524353 C224.75639242 192.36843683 224.76434123 193.47163014 224.77253091 194.60825354 C224.79171299 198.28876489 224.7681821 201.96772623 224.74462891 205.64819336 C224.74948709 208.29340222 224.75669578 210.93851001 224.76675415 213.58369446 C224.78568551 220.01292911 224.77256998 226.4417133 224.74822827 232.87091439 C224.72091585 240.36544394 224.7242704 247.85986753 224.72849493 255.3544342 C224.7348683 268.73174297 224.71157737 282.10883846 224.67236328 295.48608398 C224.63436529 308.45197038 224.62018695 321.41760682 224.63134766 334.38354492 C224.64347813 348.51781962 224.64308133 362.65198455 224.62037599 376.78625017 C224.61796154 378.29501092 224.61554956 379.80377167 224.61314011 381.31253242 C224.61132949 382.42590407 224.61132949 382.42590407 224.6094823 383.56176807 C224.60174061 388.77948726 224.60250479 393.99716546 224.6063118 399.21488762 C224.61056719 405.57883451 224.60002151 411.9425631 224.57108469 418.30644863 C224.55665052 421.55031688 224.55055271 424.79380561 224.55757141 428.03770828 C224.56403779 431.56141189 224.54579596 435.08416673 224.52139282 438.60777283 C224.52895147 439.62306138 224.53651012 440.63834992 224.54429781 441.68440479 C224.41228008 452.49171943 220.78901058 460.05045124 213.3671875 467.80078125 C205.88682137 474.75036233 198.19142868 477.309378 187.95416641 477.27123547 C187.16935642 477.27623952 186.38454643 477.28124358 185.57595432 477.28639928 C182.94822771 477.30070685 180.32069489 477.30088287 177.69293213 477.30107117 C175.78906925 477.30838921 173.88520948 477.3165539 171.98135352 477.3254922 C166.75087763 477.34743675 161.52044311 477.35683458 156.28992891 477.36406267 C150.64832158 477.37393552 145.00675426 477.39512072 139.36517334 477.41456604 C125.74391266 477.4588127 112.12264335 477.48353842 98.50133097 477.5053539 C93.37189668 477.51381041 88.24246479 477.52340561 83.11303253 477.53300887 C60.50304983 477.57517139 37.8930679 477.6111553 15.28305435 477.63057232 C9.75152836 477.6353988 4.22000243 477.6402896 -1.31152344 477.64526367 C-2.34232159 477.64618026 -2.34232159 477.64618026 -3.39394395 477.64711537 C-25.67823794 477.6671671 -47.96227017 477.7215541 -70.24644507 477.79574114 C-93.81648367 477.87406563 -117.38631043 477.91945871 -140.95649362 477.92813712 C-153.80130651 477.9337175 -166.64571896 477.95423706 -179.49040985 478.01270103 C-190.42657578 478.06238256 -201.36225245 478.08147059 -212.29852077 478.06053879 C-217.87790359 478.05080074 -223.45626833 478.05562813 -229.0355072 478.09976578 C-234.14601485 478.13985278 -239.25476693 478.13818724 -244.36529949 478.10366461 C-246.21119164 478.09848266 -248.0572034 478.10844326 -249.90290734 478.1353062 C-260.28479632 478.2770827 -267.01350993 477.92088263 -274.87069345 470.31474906 C-275.57336461 469.55088187 -276.27603577 468.78701468 -277 468 C-277.68078291 467.33762587 -278.36156581 466.67525174 -279.06297851 465.99280566 C-286.7268677 458.10084564 -288.60190017 449.3009889 -288.50793457 438.58758545 C-288.51417453 437.48071546 -288.5204145 436.37384547 -288.52684355 435.23343396 C-288.54272109 431.5470036 -288.53018933 427.86123924 -288.51757812 424.17480469 C-288.52300144 421.52298063 -288.52998117 418.87120153 -288.53881836 416.21939087 C-288.55655378 409.7790368 -288.55278664 403.33886976 -288.5411678 396.89850852 C-288.53211719 391.66422908 -288.53091648 386.43000188 -288.53526306 381.19571686 C-288.53587599 380.44945656 -288.53648893 379.70319626 -288.53712043 378.93432201 C-288.53839938 377.41814173 -288.53969623 375.90196146 -288.5410108 374.3857812 C-288.55240118 360.18841032 -288.53932551 345.99114296 -288.51780933 331.79378906 C-288.49992501 319.61572952 -288.50305638 307.43782244 -288.52148438 295.25976562 C-288.54289302 281.1053934 -288.55131816 266.95111166 -288.53903532 252.79672551 C-288.53776116 251.28749038 -288.53650367 249.77825524 -288.53526306 248.26902008 C-288.53464596 247.52650446 -288.53402886 246.78398884 -288.53339306 246.01897274 C-288.52994123 240.78983533 -288.53576456 235.5607554 -288.54518127 230.33162689 C-288.55640194 223.96102225 -288.55335932 217.59061474 -288.5320583 211.22003266 C-288.5215508 207.97056293 -288.51957642 204.72148951 -288.53065491 201.47201157 C-288.54155961 197.94917156 -288.52790678 194.42726054 -288.50793457 190.90447998 C-288.51685746 189.87822219 -288.52578034 188.85196439 -288.53497362 187.79460788 C-288.45158479 180.22959887 -286.82571553 177.08215889 -281.71875 171.51171875 C-278.421259 168.4653298 -274.99800062 165.62436244 -271.5 162.8125 C-270.80237549 162.24950195 -270.10475098 161.68650391 -269.38598633 161.10644531 C-251.03382829 146.34460943 -251.03382829 146.34460943 -247 145 C-247.00888245 144.3464856 -247.01776489 143.69297119 -247.0269165 143.01965332 C-247.11628031 136.13998272 -247.17609873 129.26048028 -247.21972656 122.38037109 C-247.2396859 119.8220346 -247.26686311 117.26374278 -247.30175781 114.70556641 C-247.53146058 97.41705546 -247.6518573 81.24673672 -239.25 65.625 C-238.90565918 64.96419434 -238.56131836 64.30338867 -238.20654297 63.62255859 C-235.10463431 57.85179538 -231.43912587 52.82549423 -227 48 C-226.26265625 47.17113281 -225.5253125 46.34226563 -224.765625 45.48828125 C-209.13559727 28.81114382 -188.55798353 21.2004912 -166 20 C-160.93304838 19.95317864 -155.87179763 20.02392083 -150.80556679 20.10642242 C-145.66587165 20.17840042 -140.5255364 20.18315879 -135.38541889 20.20027542 C-130.90530197 20.21890107 -126.42773651 20.26081379 -121.94848633 20.35302734 C-97.04662389 21.82186135 -97.04662389 21.82186135 -75.68952942 11.0881958 C-74.62185042 9.97486476 -73.57584566 8.84022848 -72.55561829 7.68325806 C-69.87147328 4.77887672 -66.73927886 2.42307221 -63.625 0 C-63.05948425 -0.45085968 -62.49396851 -0.90171936 -61.91131592 -1.36624146 C-42.96592677 -16.17052998 -18.69995492 -13.78168267 0 0 Z M-219 56 C-233.78482755 73.80034683 -236.64867583 93.70952751 -236.953125 115.9921875 C-236.96942711 117.01312626 -236.98572922 118.03406502 -237.00252533 119.08594131 C-237.08521333 124.47262355 -237.14277593 129.85891918 -237.18066406 135.24609375 C-237.22520541 140.78301258 -237.36328448 146.31362304 -237.52135086 151.84829521 C-237.62610946 156.13796494 -237.6594321 160.42611715 -237.67378998 164.71695328 C-237.69317893 166.75778849 -237.73943304 168.79856415 -237.81394196 170.83813095 C-238.524851 181.4519456 -238.524851 181.4519456 -234.45503998 190.80534935 C-230.6725637 193.96288123 -226.50267336 196.0978382 -222.01306152 198.07354927 C-218.93206287 199.49148579 -216.15918125 201.28106312 -213.296875 203.09765625 C-211.11523282 204.42034269 -208.9329257 205.74193292 -206.75 207.0625 C-205.54680405 207.79154958 -204.34368101 208.52071951 -203.140625 209.25 C-200.65848035 210.75452717 -198.17603326 212.25855336 -195.69335938 213.76220703 C-190.37234418 216.98548069 -185.05521274 220.21514851 -179.73791504 223.44454956 C-176.82544806 225.21331529 -173.91270985 226.98163426 -171 228.75 C-169.83333204 229.45833121 -168.66666538 230.16666454 -167.5 230.875 C-166.9225 231.225625 -166.345 231.57625 -165.75 231.9375 C-104.49999999 269.12500001 -104.49999999 269.12500001 -102.75015259 270.18740845 C-101.58297858 270.89604908 -100.41580329 271.60468759 -99.24862671 272.31332397 C-96.33971174 274.07943825 -93.43081889 275.84558892 -90.52197266 277.61181641 C-85.17960739 280.8556061 -79.83710896 284.09917502 -74.49368286 287.34121704 C-73.26659689 288.08582981 -72.03960664 288.83060035 -70.81271362 289.57553101 C-67.82539782 291.38921031 -64.83684288 293.20076542 -61.84521484 295.00732422 C-56.67765469 298.13146841 -51.53136999 301.27884444 -46.453125 304.546875 C-45.62635254 305.07297363 -44.79958008 305.59907227 -43.94775391 306.14111328 C-42.45638353 307.09387229 -40.97339409 308.05995331 -39.50146484 309.04248047 C-36.57732612 310.89998885 -34.66139479 312.0429683 -31.14770508 311.81469727 C-27.64561826 310.90827799 -25.16882113 309.58242445 -22.09765625 307.67578125 C-21.5473172 307.33800659 -20.99697815 307.00023193 -20.42996216 306.65222168 C-18.63513796 305.54787879 -16.84898387 304.43027456 -15.0625 303.3125 C-13.80504879 302.53572154 -12.54698386 301.75993577 -11.28833008 300.98510742 C-8.73599687 299.41247002 -6.18664569 297.8351702 -3.63964844 296.25390625 C1.49008462 293.07227966 6.65184897 289.94363096 11.8125 286.8125 C13.69032403 285.669632 15.56792928 284.52640447 17.4453125 283.3828125 C18.36344727 282.82368164 19.28158203 282.26455078 20.22753906 281.68847656 C21.14245117 281.1312793 22.05736328 280.57408203 23 280 C40.59123665 269.28663326 58.19439821 258.59300769 75.80187988 247.90637207 C79.97218308 245.37524032 84.14240581 242.84397608 88.3125 240.3125 C88.89760345 239.95731293 89.48270691 239.60212585 90.08554077 239.23617554 C98.81775793 233.93499537 107.54631628 228.62783742 116.26977539 223.31225586 C120.9029288 220.48999158 125.53868268 217.6721683 130.18066406 214.86444092 C132.61060107 213.39465464 135.0397761 211.92361089 137.46899414 210.45263672 C139.16017573 209.42935015 140.85251673 208.40798042 142.54492188 207.38671875 C144.71190264 206.07441273 146.86586567 204.74033471 149.0052948 203.38357544 C151.8566548 201.61902414 154.7581556 200.13502987 157.78645325 198.69747925 C166.8453316 194.30612119 166.8453316 194.30612119 173.07329178 186.76827621 C174.71136782 180.46873727 174.28450643 174.05366436 173.99609375 167.609375 C173.97073976 165.53501296 173.95331209 163.46054054 173.94337463 161.38604736 C173.89375686 155.94316299 173.72696825 150.50981747 173.53778076 145.07025146 C173.40470863 140.66429232 173.35657311 136.2593616 173.31295681 131.85174179 C173.25815663 126.54119705 173.1631089 121.23164735 173.05859375 115.921875 C173.04046568 114.93076469 173.02233761 113.93965439 173.0036602 112.91851044 C172.47889198 88.56615705 167.34907029 68.76692156 149.84765625 50.7890625 C134.81078333 36.59512459 116.67112396 31.84301336 96.50901794 31.85955811 C95.36937137 31.85658698 94.2297248 31.85361586 93.05554348 31.8505547 C89.24592448 31.84189983 85.43633703 31.84036217 81.62670898 31.83886719 C78.89127926 31.83477185 76.15585281 31.82923194 73.42042542 31.82382202 C65.99451061 31.81027527 58.56860122 31.80421965 51.14267612 31.79981136 C46.49981558 31.79704263 41.85695711 31.79280413 37.21409798 31.78830719 C24.34197718 31.7761191 11.46985803 31.76581901 -1.40226841 31.7624321 C-2.22514516 31.76221253 -3.04802191 31.76199297 -3.89583432 31.76176675 C-4.72060307 31.76154847 -5.54537182 31.76133019 -6.39513355 31.7611053 C-8.06623813 31.76066184 -9.7373427 31.76021528 -11.40844727 31.75976562 C-12.65181747 31.75943348 -12.65181747 31.75943348 -13.92030626 31.75909463 C-27.34066476 31.75514967 -40.76096886 31.73770282 -54.18130637 31.7144061 C-67.98247567 31.69064305 -81.78361774 31.67822799 -95.58480781 31.67706418 C-103.324473 31.67615018 -111.06406729 31.6704675 -118.80371284 31.65224457 C-125.39621008 31.63677651 -131.98861451 31.63176237 -138.58112646 31.63998267 C-141.93901909 31.64386571 -145.29657466 31.64141384 -148.65446854 31.62892532 C-176.64036969 31.53098969 -198.5997362 35.08370929 -219 56 Z M-277 184 C-277.44801886 186.08152469 -277.44801886 186.08152469 -277.37752342 188.42013741 C-277.38534666 189.32972651 -277.39316991 190.23931561 -277.40123022 191.17646801 C-277.39453805 192.17712792 -277.38784589 193.17778782 -277.38095093 194.20877075 C-277.3856309 195.2707911 -277.39031087 196.33281145 -277.39513266 197.42701423 C-277.40714674 201.00371406 -277.39760006 204.58003526 -277.38818359 208.15673828 C-277.39224658 210.71397628 -277.39758692 213.27121253 -277.40411377 215.82844543 C-277.41640332 222.06554431 -277.41456219 228.30250188 -277.40587585 234.53960271 C-277.39910526 239.61097379 -277.39817988 244.68231452 -277.4014473 249.75368881 C-277.401907 250.47505312 -277.40236669 251.19641743 -277.40284032 251.93964126 C-277.4037995 253.40508209 -277.40477214 254.8705229 -277.4057581 256.33596371 C-277.4143198 270.08939026 -277.40446756 283.84275691 -277.388357 297.59617363 C-277.37497017 309.38901564 -277.37726687 321.18176899 -277.39111328 332.97460938 C-277.4071848 346.66895885 -277.41347776 360.36325566 -277.40427649 374.05761325 C-277.40332086 375.51954769 -277.40237775 376.98148214 -277.4014473 378.4434166 C-277.40098447 379.162698 -277.40052164 379.88197941 -277.40004479 380.62305722 C-277.39745834 385.68338084 -277.40181882 390.74367098 -277.40888596 395.80398941 C-277.41820212 402.6247664 -277.41152347 409.44537368 -277.39420319 416.26613426 C-277.39024034 418.76826767 -277.3913689 421.27041517 -277.39799118 423.77254295 C-277.40620497 427.19166009 -277.39588607 430.61024409 -277.38095093 434.02932739 C-277.38764309 435.01660297 -277.39433526 436.00387854 -277.40123022 437.02107155 C-277.32411421 446.14139193 -275.54687057 453.45312943 -269 460 C-262.84567895 464.61574079 -258.0004912 466.30275233 -250.35694408 466.24609566 C-249.20863801 466.24955719 -249.20863801 466.24955719 -248.03713384 466.25308865 C-245.46299791 466.25839708 -242.88911041 466.24939757 -240.31498718 466.24050903 C-238.45451115 466.24138093 -236.59403535 466.24313161 -234.73356086 466.24568737 C-229.61411808 466.25016807 -224.49475867 466.24214726 -219.37532651 466.23213124 C-213.85729877 466.22350946 -208.33927587 466.226416 -202.82124329 466.22793579 C-193.25854563 466.22898545 -183.69587523 466.22270041 -174.13318443 466.21146011 C-160.30707242 466.19521902 -146.4809736 466.18999853 -132.65485308 466.18748413 C-110.22391458 466.18310484 -87.79299041 466.16980656 -65.36206055 466.15087891 C-43.57006913 466.13251162 -21.77808159 466.11834362 0.01391602 466.10986328 C0.68558355 466.10960023 1.35725107 466.10933718 2.04927217 466.10906615 C8.794404 466.10642912 15.53953587 466.10387749 22.28466777 466.10138843 C78.85645539 466.08050455 135.42822692 466.04521042 192 466 C191.43702791 461.73906552 191.43702791 461.73906552 188.2109375 458.81640625 C186.94191934 458.04895404 185.66224152 457.2989776 184.375 456.5625 C183.66698242 456.13912354 182.95896484 455.71574707 182.22949219 455.27954102 C180.66345075 454.34336426 179.0935729 453.41358401 177.52050781 452.48925781 C174.01539083 450.41823751 170.54634038 448.28988078 167.07397461 446.16455078 C162.05732588 443.09653201 157.02728093 440.05055315 152 437 C149.76166363 435.64071577 147.52338372 434.28133855 145.28515625 432.921875 C138.19090755 428.61325963 131.09551393 424.30653135 124 420 C119.22906148 417.10433994 114.45818946 414.20857038 109.6875 411.3125 C109.10239655 410.95731293 108.51729309 410.60212585 107.91445923 410.23617554 C99.17579968 404.93108431 90.44182203 399.61834393 81.71044922 394.30126953 C70.67355703 387.58141869 59.62677013 380.8778674 48.58056641 374.17333984 C42.13874868 370.26338628 35.69764125 366.35226266 29.25640869 362.44134521 C27.51078741 361.38146227 25.76516126 360.32158732 24.01953125 359.26171875 C23.44303833 358.911698 22.86654541 358.56167725 22.27258301 358.2010498 C18.72243528 356.04561181 15.17211623 353.89045631 11.62167358 351.73550415 C-0.68663841 344.26492154 -12.99220025 336.78988891 -25.28955078 329.30126953 C-32.75209205 324.75767489 -40.21898326 320.22126335 -47.6875 315.6875 C-48.27220062 315.33255463 -48.85690125 314.97760925 -49.45932007 314.61190796 C-53.63943206 312.07441641 -57.81969901 309.53718018 -62 307 C-66.77093852 304.10433994 -71.54181054 301.20857038 -76.3125 298.3125 C-77.19015518 297.77971939 -77.19015518 297.77971939 -78.08554077 297.23617554 C-86.82420032 291.93108431 -95.55817797 286.61834393 -104.28955078 281.30126953 C-111.75209205 276.75767489 -119.21898326 272.22126335 -126.6875 267.6875 C-127.27220062 267.33255463 -127.85690125 266.97760925 -128.45932007 266.61190796 C-132.63943206 264.07441641 -136.81969901 261.53718018 -141 259 C-145.77093852 256.10433994 -150.54181054 253.20857038 -155.3125 250.3125 C-156.19015518 249.77971939 -156.19015518 249.77971939 -157.08554077 249.23617554 C-165.82420032 243.93108431 -174.55817797 238.61834393 -183.28955078 233.30126953 C-190.16172532 229.11712176 -197.03742001 224.93879108 -203.91500854 220.7635498 C-205.6869606 219.68782746 -207.45883913 218.6119841 -209.23071289 217.53613281 C-214.63650113 214.25411495 -220.04298867 210.97326376 -225.45196533 207.69650269 C-227.85540167 206.24032681 -230.25830751 204.7832765 -232.66125488 203.32629395 C-234.42033306 202.26040209 -236.18034748 201.19606882 -237.94042969 200.13183594 C-243.41015117 196.81997343 -248.85471803 193.47515847 -254.25 190.04296875 C-255.69741577 189.12692871 -255.69741577 189.12692871 -257.17407227 188.19238281 C-258.96204158 187.05695359 -260.74422838 185.91234462 -262.51928711 184.75683594 C-263.3056958 184.25829102 -264.09210449 183.75974609 -264.90234375 183.24609375 C-265.57773193 182.80966553 -266.25312012 182.3732373 -266.94897461 181.92358398 C-271.20330177 180.00784542 -274.1182059 180.31114413 -277 184 Z " fill="#1C97DA" transform="translate(288,23)"/>
<path d="M0 0 C2.91185685 2.34189286 5.7692087 4.7287675 8.58984375 7.1796875 C9.10181305 7.59744949 9.61378235 8.01521149 10.14126587 8.44563293 C11.58251282 9.6508762 12.97207451 10.91805345 14.33798218 12.20805359 C23.13224481 19.83248697 30.30231892 20.25146277 41.63671875 20.02734375 C43.32762808 20.02792067 45.01854071 20.03277258 46.70942688 20.04164124 C51.13737697 20.0548506 55.5632938 20.01652082 59.99090576 19.96496582 C66.19773612 19.90174693 72.40492319 19.90787084 78.61201477 19.90834045 C81.90494581 19.90855778 85.19671569 19.88887601 88.48942566 19.85179138 C96.09643159 19.79013124 103.56935098 20.00180604 111.13208008 20.87329102 C112.13973309 20.98885676 112.13973309 20.98885676 113.16774273 21.10675716 C132.43212874 23.58360049 147.56011349 32.38404511 161 46 C161.75152344 46.7528125 162.50304687 47.505625 163.27734375 48.28125 C177.43625799 63.28263323 183.37578604 82.68875627 183.1953125 102.91015625 C183.19106766 104.72222816 183.19106766 104.72222816 183.18673706 106.57090759 C183.17560767 110.40154228 183.15051623 114.23193685 183.125 118.0625 C183.11496085 120.67122056 183.10583664 123.27994482 183.09765625 125.88867188 C183.07569205 132.2591955 183.04228695 138.62958058 183 145 C183.62080948 145.30208374 184.24161896 145.60416748 184.88124084 145.91540527 C187.10592164 147.05422139 188.90924977 148.3606873 190.87109375 149.90625 C191.60424805 150.48028564 192.33740234 151.05432129 193.09277344 151.64575195 C193.8665332 152.25765381 194.64029297 152.86955566 195.4375 153.5 C202.08182471 158.75598932 202.08182471 158.75598932 208.86328125 163.83203125 C209.44086182 164.25613281 210.01844238 164.68023437 210.61352539 165.1171875 C212.1364774 166.22958091 213.66942565 167.32825301 215.203125 168.42578125 C220.3649542 173.17668271 224.23156215 178.11565666 224.74946022 185.2961874 C224.77957169 187.28564494 224.77728034 189.2757671 224.7484436 191.26524353 C224.75639242 192.36843683 224.76434123 193.47163014 224.77253091 194.60825354 C224.79171299 198.28876489 224.7681821 201.96772623 224.74462891 205.64819336 C224.74948709 208.29340222 224.75669578 210.93851001 224.76675415 213.58369446 C224.78568551 220.01292911 224.77256998 226.4417133 224.74822827 232.87091439 C224.72091585 240.36544394 224.7242704 247.85986753 224.72849493 255.3544342 C224.7348683 268.73174297 224.71157737 282.10883846 224.67236328 295.48608398 C224.63436529 308.45197038 224.62018695 321.41760682 224.63134766 334.38354492 C224.64347813 348.51781962 224.64308133 362.65198455 224.62037599 376.78625017 C224.61796154 378.29501092 224.61554956 379.80377167 224.61314011 381.31253242 C224.61132949 382.42590407 224.61132949 382.42590407 224.6094823 383.56176807 C224.60174061 388.77948726 224.60250479 393.99716546 224.6063118 399.21488762 C224.61056719 405.57883451 224.60002151 411.9425631 224.57108469 418.30644863 C224.55665052 421.55031688 224.55055271 424.79380561 224.55757141 428.03770828 C224.56403779 431.56141189 224.54579596 435.08416673 224.52139282 438.60777283 C224.52895147 439.62306138 224.53651012 440.63834992 224.54429781 441.68440479 C224.41228008 452.49171943 220.78901058 460.05045124 213.3671875 467.80078125 C205.88682137 474.75036233 198.19142868 477.309378 187.95416641 477.27123547 C187.16935642 477.27623952 186.38454643 477.28124358 185.57595432 477.28639928 C182.94822771 477.30070685 180.32069489 477.30088287 177.69293213 477.30107117 C175.78906925 477.30838921 173.88520948 477.3165539 171.98135352 477.3254922 C166.75087763 477.34743675 161.52044311 477.35683458 156.28992891 477.36406267 C150.64832158 477.37393552 145.00675426 477.39512072 139.36517334 477.41456604 C125.74391266 477.4588127 112.12264335 477.48353842 98.50133097 477.5053539 C93.37189668 477.51381041 88.24246479 477.52340561 83.11303253 477.53300887 C60.50304983 477.57517139 37.8930679 477.6111553 15.28305435 477.63057232 C9.75152836 477.6353988 4.22000243 477.6402896 -1.31152344 477.64526367 C-2.34232159 477.64618026 -2.34232159 477.64618026 -3.39394395 477.64711537 C-25.67823794 477.6671671 -47.96227017 477.7215541 -70.24644507 477.79574114 C-93.81648367 477.87406563 -117.38631043 477.91945871 -140.95649362 477.92813712 C-153.80130651 477.9337175 -166.64571896 477.95423706 -179.49040985 478.01270103 C-190.42657578 478.06238256 -201.36225245 478.08147059 -212.29852077 478.06053879 C-217.87790359 478.05080074 -223.45626833 478.05562813 -229.0355072 478.09976578 C-234.14601485 478.13985278 -239.25476693 478.13818724 -244.36529949 478.10366461 C-246.21119164 478.09848266 -248.0572034 478.10844326 -249.90290734 478.1353062 C-260.28479632 478.2770827 -267.01350993 477.92088263 -274.87069345 470.31474906 C-275.57336461 469.55088187 -276.27603577 468.78701468 -277 468 C-277.68078291 467.33762587 -278.36156581 466.67525174 -279.06297851 465.99280566 C-286.7268677 458.10084564 -288.60190017 449.3009889 -288.50793457 438.58758545 C-288.51417453 437.48071546 -288.5204145 436.37384547 -288.52684355 435.23343396 C-288.54272109 431.5470036 -288.53018933 427.86123924 -288.51757812 424.17480469 C-288.52300144 421.52298063 -288.52998117 418.87120153 -288.53881836 416.21939087 C-288.55655378 409.7790368 -288.55278664 403.33886976 -288.5411678 396.89850852 C-288.53211719 391.66422908 -288.53091648 386.43000188 -288.53526306 381.19571686 C-288.53587599 380.44945656 -288.53648893 379.70319626 -288.53712043 378.93432201 C-288.53839938 377.41814173 -288.53969623 375.90196146 -288.5410108 374.3857812 C-288.55240118 360.18841032 -288.53932551 345.99114296 -288.51780933 331.79378906 C-288.49992501 319.61572952 -288.50305638 307.43782244 -288.52148438 295.25976562 C-288.54289302 281.1053934 -288.55131816 266.95111166 -288.53903532 252.79672551 C-288.53776116 251.28749038 -288.53650367 249.77825524 -288.53526306 248.26902008 C-288.53464596 247.52650446 -288.53402886 246.78398884 -288.53339306 246.01897274 C-288.52994123 240.78983533 -288.53576456 235.5607554 -288.54518127 230.33162689 C-288.55640194 223.96102225 -288.55335932 217.59061474 -288.5320583 211.22003266 C-288.5215508 207.97056293 -288.51957642 204.72148951 -288.53065491 201.47201157 C-288.54155961 197.94917156 -288.52790678 194.42726054 -288.50793457 190.90447998 C-288.51685746 189.87822219 -288.52578034 188.85196439 -288.53497362 187.79460788 C-288.45158479 180.22959887 -286.82571553 177.08215889 -281.71875 171.51171875 C-278.421259 168.4653298 -274.99800062 165.62436244 -271.5 162.8125 C-270.80237549 162.24950195 -270.10475098 161.68650391 -269.38598633 161.10644531 C-251.03382829 146.34460943 -251.03382829 146.34460943 -247 145 C-247.00888245 144.3464856 -247.01776489 143.69297119 -247.0269165 143.01965332 C-247.11628031 136.13998272 -247.17609873 129.26048028 -247.21972656 122.38037109 C-247.2396859 119.8220346 -247.26686311 117.26374278 -247.30175781 114.70556641 C-247.53146058 97.41705546 -247.6518573 81.24673672 -239.25 65.625 C-238.90565918 64.96419434 -238.56131836 64.30338867 -238.20654297 63.62255859 C-235.10463431 57.85179538 -231.43912587 52.82549423 -227 48 C-226.26265625 47.17113281 -225.5253125 46.34226563 -224.765625 45.48828125 C-209.13559727 28.81114382 -188.55798353 21.2004912 -166 20 C-160.93304838 19.95317864 -155.87179763 20.02392083 -150.80556679 20.10642242 C-145.66587165 20.17840042 -140.5255364 20.18315879 -135.38541889 20.20027542 C-130.90530197 20.21890107 -126.42773651 20.26081379 -121.94848633 20.35302734 C-97.04662389 21.82186135 -97.04662389 21.82186135 -75.68952942 11.0881958 C-74.62185042 9.97486476 -73.57584566 8.84022848 -72.55561829 7.68325806 C-69.87147328 4.77887672 -66.73927886 2.42307221 -63.625 0 C-63.05948425 -0.45085968 -62.49396851 -0.90171936 -61.91131592 -1.36624146 C-42.96592677 -16.17052998 -18.69995492 -13.78168267 0 0 Z M-219 56 C-233.78482755 73.80034683 -236.64867583 93.70952751 -236.953125 115.9921875 C-236.96942711 117.01312626 -236.98572922 118.03406502 -237.00252533 119.08594131 C-237.08521333 124.47262355 -237.14277593 129.85891918 -237.18066406 135.24609375 C-237.22520541 140.78301258 -237.36328448 146.31362304 -237.52135086 151.84829521 C-237.62610946 156.13796494 -237.6594321 160.42611715 -237.67378998 164.71695328 C-237.69317893 166.75778849 -237.73943304 168.79856415 -237.81394196 170.83813095 C-238.524851 181.4519456 -238.524851 181.4519456 -234.45503998 190.80534935 C-230.6725637 193.96288123 -226.50267336 196.0978382 -222.01306152 198.07354927 C-218.93206287 199.49148579 -216.15918125 201.28106312 -213.296875 203.09765625 C-211.11523282 204.42034269 -208.9329257 205.74193292 -206.75 207.0625 C-205.54680405 207.79154958 -204.34368101 208.52071951 -203.140625 209.25 C-200.65848035 210.75452717 -198.17603326 212.25855336 -195.69335938 213.76220703 C-190.37234418 216.98548069 -185.05521274 220.21514851 -179.73791504 223.44454956 C-176.82544806 225.21331529 -173.91270985 226.98163426 -171 228.75 C-169.83333204 229.45833121 -168.66666538 230.16666454 -167.5 230.875 C-166.9225 231.225625 -166.345 231.57625 -165.75 231.9375 C-104.49999999 269.12500001 -104.49999999 269.12500001 -102.75015259 270.18740845 C-101.58297858 270.89604908 -100.41580329 271.60468759 -99.24862671 272.31332397 C-96.33971174 274.07943825 -93.43081889 275.84558892 -90.52197266 277.61181641 C-85.17960739 280.8556061 -79.83710896 284.09917502 -74.49368286 287.34121704 C-73.26659689 288.08582981 -72.03960664 288.83060035 -70.81271362 289.57553101 C-67.82539782 291.38921031 -64.83684288 293.20076542 -61.84521484 295.00732422 C-56.67765469 298.13146841 -51.53136999 301.27884444 -46.453125 304.546875 C-45.62635254 305.07297363 -44.79958008 305.59907227 -43.94775391 306.14111328 C-42.45638353 307.09387229 -40.97339409 308.05995331 -39.50146484 309.04248047 C-36.57732612 310.89998885 -34.66139479 312.0429683 -31.14770508 311.81469727 C-27.64561826 310.90827799 -25.16882113 309.58242445 -22.09765625 307.67578125 C-21.5473172 307.33800659 -20.99697815 307.00023193 -20.42996216 306.65222168 C-18.63513796 305.54787879 -16.84898387 304.43027456 -15.0625 303.3125 C-13.80504879 302.53572154 -12.54698386 301.75993577 -11.28833008 300.98510742 C-8.73599687 299.41247002 -6.18664569 297.8351702 -3.63964844 296.25390625 C1.49008462 293.07227966 6.65184897 289.94363096 11.8125 286.8125 C13.69032403 285.669632 15.56792928 284.52640447 17.4453125 283.3828125 C18.36344727 282.82368164 19.28158203 282.26455078 20.22753906 281.68847656 C21.14245117 281.1312793 22.05736328 280.57408203 23 280 C40.59123665 269.28663326 58.19439821 258.59300769 75.80187988 247.90637207 C79.97218308 245.37524032 84.14240581 242.84397608 88.3125 240.3125 C88.89760345 239.95731293 89.48270691 239.60212585 90.08554077 239.23617554 C98.81775793 233.93499537 107.54631628 228.62783742 116.26977539 223.31225586 C120.9029288 220.48999158 125.53868268 217.6721683 130.18066406 214.86444092 C132.61060107 213.39465464 135.0397761 211.92361089 137.46899414 210.45263672 C139.16017573 209.42935015 140.85251673 208.40798042 142.54492188 207.38671875 C144.71190264 206.07441273 146.86586567 204.74033471 149.0052948 203.38357544 C151.8566548 201.61902414 154.7581556 200.13502987 157.78645325 198.69747925 C166.8453316 194.30612119 166.8453316 194.30612119 173.07329178 186.76827621 C174.71136782 180.46873727 174.28450643 174.05366436 173.99609375 167.609375 C173.97073976 165.53501296 173.95331209 163.46054054 173.94337463 161.38604736 C173.89375686 155.94316299 173.72696825 150.50981747 173.53778076 145.07025146 C173.40470863 140.66429232 173.35657311 136.2593616 173.31295681 131.85174179 C173.25815663 126.54119705 173.1631089 121.23164735 173.05859375 115.921875 C173.04046568 114.93076469 173.02233761 113.93965439 173.0036602 112.91851044 C172.47889198 88.56615705 167.34907029 68.76692156 149.84765625 50.7890625 C134.81078333 36.59512459 116.67112396 31.84301336 96.50901794 31.85955811 C95.36937137 31.85658698 94.2297248 31.85361586 93.05554348 31.8505547 C89.24592448 31.84189983 85.43633703 31.84036217 81.62670898 31.83886719 C78.89127926 31.83477185 76.15585281 31.82923194 73.42042542 31.82382202 C65.99451061 31.81027527 58.56860122 31.80421965 51.14267612 31.79981136 C46.49981558 31.79704263 41.85695711 31.79280413 37.21409798 31.78830719 C24.34197718 31.7761191 11.46985803 31.76581901 -1.40226841 31.7624321 C-2.22514516 31.76221253 -3.04802191 31.76199297 -3.89583432 31.76176675 C-4.72060307 31.76154847 -5.54537182 31.76133019 -6.39513355 31.7611053 C-8.06623813 31.76066184 -9.7373427 31.76021528 -11.40844727 31.75976562 C-12.65181747 31.75943348 -12.65181747 31.75943348 -13.92030626 31.75909463 C-27.34066476 31.75514967 -40.76096886 31.73770282 -54.18130637 31.7144061 C-67.98247567 31.69064305 -81.78361774 31.67822799 -95.58480781 31.67706418 C-103.324473 31.67615018 -111.06406729 31.6704675 -118.80371284 31.65224457 C-125.39621008 31.63677651 -131.98861451 31.63176237 -138.58112646 31.63998267 C-141.93901909 31.64386571 -145.29657466 31.64141384 -148.65446854 31.62892532 C-176.64036969 31.53098969 -198.5997362 35.08370929 -219 56 Z M-277 184 C-277.44801886 186.08152469 -277.44801886 186.08152469 -277.37752342 188.42013741 C-277.38534666 189.32972651 -277.39316991 190.23931561 -277.40123022 191.17646801 C-277.39453805 192.17712792 -277.38784589 193.17778782 -277.38095093 194.20877075 C-277.3856309 195.2707911 -277.39031087 196.33281145 -277.39513266 197.42701423 C-277.40714674 201.00371406 -277.39760006 204.58003526 -277.38818359 208.15673828 C-277.39224658 210.71397628 -277.39758692 213.27121253 -277.40411377 215.82844543 C-277.41640332 222.06554431 -277.41456219 228.30250188 -277.40587585 234.53960271 C-277.39910526 239.61097379 -277.39817988 244.68231452 -277.4014473 249.75368881 C-277.401907 250.47505312 -277.40236669 251.19641743 -277.40284032 251.93964126 C-277.4037995 253.40508209 -277.40477214 254.8705229 -277.4057581 256.33596371 C-277.4143198 270.08939026 -277.40446756 283.84275691 -277.388357 297.59617363 C-277.37497017 309.38901564 -277.37726687 321.18176899 -277.39111328 332.97460938 C-277.4071848 346.66895885 -277.41347776 360.36325566 -277.40427649 374.05761325 C-277.40332086 375.51954769 -277.40237775 376.98148214 -277.4014473 378.4434166 C-277.40098447 379.162698 -277.40052164 379.88197941 -277.40004479 380.62305722 C-277.39745834 385.68338084 -277.40181882 390.74367098 -277.40888596 395.80398941 C-277.41820212 402.6247664 -277.41152347 409.44537368 -277.39420319 416.26613426 C-277.39024034 418.76826767 -277.3913689 421.27041517 -277.39799118 423.77254295 C-277.40620497 427.19166009 -277.39588607 430.61024409 -277.38095093 434.02932739 C-277.38764309 435.01660297 -277.39433526 436.00387854 -277.40123022 437.02107155 C-277.32411421 446.14139193 -275.54687057 453.45312943 -269 460 C-262.84567895 464.61574079 -258.0004912 466.30275233 -250.35694408 466.24609566 C-249.20863801 466.24955719 -249.20863801 466.24955719 -248.03713384 466.25308865 C-245.46299791 466.25839708 -242.88911041 466.24939757 -240.31498718 466.24050903 C-238.45451115 466.24138093 -236.59403535 466.24313161 -234.73356086 466.24568737 C-229.61411808 466.25016807 -224.49475867 466.24214726 -219.37532651 466.23213124 C-213.85729877 466.22350946 -208.33927587 466.226416 -202.82124329 466.22793579 C-193.25854563 466.22898545 -183.69587523 466.22270041 -174.13318443 466.21146011 C-160.30707242 466.19521902 -146.4809736 466.18999853 -132.65485308 466.18748413 C-110.22391458 466.18310484 -87.79299041 466.16980656 -65.36206055 466.15087891 C-43.57006913 466.13251162 -21.77808159 466.11834362 0.01391602 466.10986328 C0.68558355 466.10960023 1.35725107 466.10933718 2.04927217 466.10906615 C8.794404 466.10642912 15.53953587 466.10387749 22.28466777 466.10138843 C78.85645539 466.08050455 135.42822692 466.04521042 192 466 C191.43702791 461.73906552 191.43702791 461.73906552 188.2109375 458.81640625 C186.94191934 458.04895404 185.66224152 457.2989776 184.375 456.5625 C183.66698242 456.13912354 182.95896484 455.71574707 182.22949219 455.27954102 C180.66345075 454.34336426 179.0935729 453.41358401 177.52050781 452.48925781 C174.01539083 450.41823751 170.54634038 448.28988078 167.07397461 446.16455078 C162.05732588 443.09653201 157.02728093 440.05055315 152 437 C149.76166363 435.64071577 147.52338372 434.28133855 145.28515625 432.921875 C138.19090755 428.61325963 131.09551393 424.30653135 124 420 C119.22906148 417.10433994 114.45818946 414.20857038 109.6875 411.3125 C109.10239655 410.95731293 108.51729309 410.60212585 107.91445923 410.23617554 C99.17579968 404.93108431 90.44182203 399.61834393 81.71044922 394.30126953 C70.67355703 387.58141869 59.62677013 380.8778674 48.58056641 374.17333984 C42.13874868 370.26338628 35.69764125 366.35226266 29.25640869 362.44134521 C27.51078741 361.38146227 25.76516126 360.32158732 24.01953125 359.26171875 C23.44303833 358.911698 22.86654541 358.56167725 22.27258301 358.2010498 C18.72243528 356.04561181 15.17211623 353.89045631 11.62167358 351.73550415 C-0.68663841 344.26492154 -12.99220025 336.78988891 -25.28955078 329.30126953 C-32.75209205 324.75767489 -40.21898326 320.22126335 -47.6875 315.6875 C-48.27220062 315.33255463 -48.85690125 314.97760925 -49.45932007 314.61190796 C-53.63943206 312.07441641 -57.81969901 309.53718018 -62 307 C-66.77093852 304.10433994 -71.54181054 301.20857038 -76.3125 298.3125 C-77.19015518 297.77971939 -77.19015518 297.77971939 -78.08554077 297.23617554 C-86.82420032 291.93108431 -95.55817797 286.61834393 -104.28955078 281.30126953 C-111.75209205 276.75767489 -119.21898326 272.22126335 -126.6875 267.6875 C-127.27220062 267.33255463 -127.85690125 266.97760925 -128.45932007 266.61190796 C-132.63943206 264.07441641 -136.81969901 261.53718018 -141 259 C-145.77093852 256.10433994 -150.54181054 253.20857038 -155.3125 250.3125 C-156.19015518 249.77971939 -156.19015518 249.77971939 -157.08554077 249.23617554 C-165.82420032 243.93108431 -174.55817797 238.61834393 -183.28955078 233.30126953 C-190.16172532 229.11712176 -197.03742001 224.93879108 -203.91500854 220.7635498 C-205.6869606 219.68782746 -207.45883913 218.6119841 -209.23071289 217.53613281 C-214.63650113 214.25411495 -220.04298867 210.97326376 -225.45196533 207.69650269 C-227.85540167 206.24032681 -230.25830751 204.7832765 -232.66125488 203.32629395 C-234.42033306 202.26040209 -236.18034748 201.19606882 -237.94042969 200.13183594 C-243.41015117 196.81997343 -248.85471803 193.47515847 -254.25 190.04296875 C-255.69741577 189.12692871 -255.69741577 189.12692871 -257.17407227 188.19238281 C-258.96204158 187.05695359 -260.74422838 185.91234462 -262.51928711 184.75683594 C-263.3056958 184.25829102 -264.09210449 183.75974609 -264.90234375 183.24609375 C-265.57773193 182.80966553 -266.25312012 182.3732373 -266.94897461 181.92358398 C-271.20330177 180.00784542 -274.1182059 180.31114413 -277 184 Z M200.90234375 183.24609375 C199.72176392 183.99451538 199.72176392 183.99451538 198.51733398 184.75805664 C197.66598877 185.31227295 196.81464355 185.86648926 195.9375 186.4375 C194.05304247 187.63432405 192.16757136 188.82955321 190.28125 190.0234375 C188.7653125 190.98781738 188.7653125 190.98781738 187.21875 191.97167969 C181.50228484 195.57395461 175.71790384 199.06421794 169.9375 202.5625 C168.72446861 203.29799777 167.51149654 204.03359339 166.29858398 204.76928711 C158.76261748 209.33819696 151.21111574 213.88079975 143.64941406 218.40698242 C126.94907187 228.41264512 110.34020385 238.57199708 93.71240234 248.69750977 C86.24924235 253.24156441 78.78167296 257.77833829 71.3125 262.3125 C70.72779938 262.66744537 70.14309875 263.02239075 69.54067993 263.38809204 C64.75996846 266.29017098 59.97904774 269.19190511 55.19812012 272.09362793 C47.55544545 276.73228743 39.91318451 281.37162645 32.27197266 286.01269531 C30.16757582 287.2908471 28.06309085 288.56885381 25.95849609 289.84667969 C20.31286268 293.27509482 14.67098706 296.70957092 9.03320312 300.15087891 C6.8560413 301.47813452 4.67775692 302.80340908 2.49804688 304.12646484 C-0.53778389 305.96933082 -3.57046159 307.81729261 -6.60125732 309.66842651 C-7.77665089 310.3851452 -8.95311348 311.10011388 -10.13067627 311.81326294 C-11.76444848 312.80310853 -13.39404754 313.79983223 -15.0234375 314.796875 C-16.42988525 315.65297363 -16.42988525 315.65297363 -17.86474609 316.52636719 C-20.11334815 317.82493312 -20.11334815 317.82493312 -21 320 C-19.88109375 320.66902344 -18.7621875 321.33804688 -17.609375 322.02734375 C-3.91418948 330.22551491 9.73204735 338.50339146 23.37109375 346.79443359 C28.66545717 350.01259345 33.96181075 353.22747493 39.25805664 356.4425354 C42.17212325 358.21154945 45.08605463 359.98078624 48 361.75 C49.16666602 362.4583344 50.33333269 363.16666773 51.5 363.875 C114.49999999 402.12499999 114.49999999 402.12499999 116.24996948 403.18748474 C117.41673401 403.89587531 118.5835024 404.6042595 119.75027466 405.31263733 C122.66547585 407.08254279 125.58060992 408.85255861 128.49560547 410.62280273 C134.35235538 414.17937677 140.21024451 417.73405168 146.0703125 421.28515625 C152.464915 425.16062111 158.85543756 429.04275169 165.24255371 432.93054199 C167.03667152 434.0223157 168.83132032 435.11321322 170.62597656 436.20410156 C173.60448739 438.01541349 176.58004326 439.83149744 179.5536499 441.65084839 C181.19317021 442.65277091 182.83506953 443.65079729 184.47705078 444.64868164 C200.65474075 454.56768792 200.65474075 454.56768792 203 460 C206.6297578 458.5682192 207.90238825 456.99194181 209.6875 453.5625 C210.10386719 452.78003906 210.52023437 451.99757813 210.94921875 451.19140625 C212.55621196 447.84001891 213.12565675 445.21949794 213.13142776 441.54748535 C213.13526891 440.63071266 213.13911005 439.71393997 213.1430676 438.76938629 C213.14220112 437.76074272 213.14133463 436.75209915 213.14044189 435.71289062 C213.14341302 434.64255333 213.14638414 433.57221603 213.1494453 432.46944427 C213.15815155 428.86503837 213.15964216 425.2606656 213.16113281 421.65625 C213.16575952 419.07942636 213.17078397 416.5026034 213.17617798 413.92578125 C213.18976196 406.91358614 213.19578572 399.90139675 213.20018864 392.88919067 C213.20295015 388.51295856 213.20718726 384.13672866 213.21169281 379.76049805 C213.22388405 367.64945616 213.23418463 355.53841605 213.2375679 343.42736816 C213.23778747 342.65221406 213.23800703 341.87705997 213.23823325 341.07841635 C213.23845153 340.30139065 213.23866981 339.52436496 213.2388947 338.72379303 C213.23933817 337.14919535 213.23978473 335.57459768 213.24023438 334 C213.2404558 333.21894237 213.24067723 332.43788473 213.24090537 331.63315868 C213.24485633 318.96742423 213.26232005 306.30174721 213.2855939 293.63603497 C213.30928318 280.63965059 213.32176859 267.64329506 213.32293582 254.64688873 C213.32385379 247.34683606 213.32963685 240.04685827 213.34775543 232.74682617 C213.36472614 225.88504786 213.36642728 219.0234142 213.35761642 212.16162109 C213.3568422 209.63761006 213.36123906 207.11359159 213.37107468 204.58959961 C213.3836773 201.15526333 213.37798122 197.72144111 213.36749268 194.28710938 C213.37554908 193.27846581 213.38360548 192.26982224 213.39190602 191.23061371 C213.38531618 190.31384102 213.37872633 189.39706833 213.3719368 188.45251465 C213.37283243 187.262822 213.37283243 187.262822 213.37374616 186.04909515 C212.90252477 183.46558375 212.06675822 182.57630193 210 181 C206.21236989 180.48922711 204.06682967 181.20123866 200.90234375 183.24609375 Z " fill="#472916" transform="translate(288,23)"/>
<path d="M0 0 C0.76539597 -0.0066568 1.53079193 -0.0133136 2.31938171 -0.02017212 C3.94767862 -0.03031611 5.57601724 -0.0349886 7.2043457 -0.03466797 C9.65194586 -0.03897923 12.0976487 -0.07510071 14.54492188 -0.11328125 C26.10544539 -0.19800935 36.99091791 0.56196035 46.44921875 7.9609375 C52.91608761 14.43969399 54.5878313 20.80775528 54.82421875 29.8359375 C54.51830537 39.32881212 53.11621817 46.61938185 46.421875 53.640625 C41.86983511 57.43253539 37.28910793 59.3359375 31.38671875 59.3359375 C34.17786557 64.79972647 36.97130325 70.26233569 39.7668457 75.72387695 C40.71701689 77.5809782 41.66656757 79.43839708 42.61547852 81.29614258 C43.98159348 83.97040744 45.34995524 86.64351222 46.71875 89.31640625 C47.14074173 90.14367722 47.56273346 90.97094818 47.99751282 91.82328796 C49.63834304 95.02317014 51.25556232 98.13134479 53.19799805 101.16137695 C54.95989675 104.38446829 54.13810783 106.8522245 53.38671875 110.3359375 C50.13671875 111.1484375 50.13671875 111.1484375 46.38671875 111.3359375 C42.19157412 107.21750715 39.81370538 101.69962458 37.18359375 96.51171875 C36.70094055 95.5691069 36.21828735 94.62649506 35.7210083 93.65531921 C34.706434 91.67062531 33.69466787 89.68449367 32.68554688 87.69702148 C31.135014 84.64508201 29.57405225 81.59864681 28.01171875 78.55273438 C27.02672182 76.62271311 26.04232561 74.69238512 25.05859375 72.76171875 C24.58991882 71.84715408 24.1212439 70.93258942 23.6383667 69.99031067 C23.21082092 69.14570786 22.78327515 68.30110504 22.34277344 67.4309082 C21.96401062 66.68654007 21.5852478 65.94217194 21.19500732 65.17524719 C20.38671875 63.3359375 20.38671875 63.3359375 20.38671875 61.3359375 C14.11671875 61.3359375 7.84671875 61.3359375 1.38671875 61.3359375 C1.39719238 62.77952637 1.40766602 64.22311523 1.41845703 65.71044922 C1.45457805 71.05156996 1.4775904 76.39267984 1.49658203 81.73388672 C1.50665767 84.04835829 1.5203185 86.36281709 1.53759766 88.67724609 C1.5617774 91.99840443 1.57318605 95.3193949 1.58203125 98.640625 C1.59235382 99.68024384 1.60267639 100.71986267 1.61331177 101.79098511 C1.61346283 102.75183014 1.61361389 103.71267517 1.61376953 104.70263672 C1.61821075 105.55091034 1.62265198 106.39918396 1.62722778 107.27316284 C1.38671875 109.3359375 1.38671875 109.3359375 -0.61328125 111.3359375 C-4.11328125 111.5859375 -4.11328125 111.5859375 -7.61328125 111.3359375 C-10.03301579 108.91620296 -9.86406991 108.35420675 -9.86724854 105.04675293 C-9.87288818 104.14657944 -9.87852783 103.24640594 -9.88433838 102.31895447 C-9.88028992 101.32875809 -9.87624146 100.33856171 -9.87207031 99.31835938 C-9.87557495 98.27764786 -9.87907959 97.23693634 -9.88269043 96.16468811 C-9.89152083 92.71128749 -9.88565392 89.25809034 -9.87890625 85.8046875 C-9.88025252 83.41337037 -9.88219273 81.0220535 -9.88470459 78.6307373 C-9.88765763 73.6136617 -9.8833524 68.5966572 -9.87402344 63.57958984 C-9.86262886 57.13626191 -9.86918737 50.69310057 -9.88116837 44.24977875 C-9.88838209 39.31026953 -9.88610128 34.37080006 -9.88091278 29.43128967 C-9.87957493 27.05493653 -9.88122869 24.67857982 -9.88587189 22.30223083 C-9.89092907 18.98589464 -9.88323814 15.6698314 -9.87207031 12.35351562 C-9.87611877 11.36331924 -9.88016724 10.37312286 -9.88433838 9.35292053 C-9.87869873 8.45274704 -9.87305908 7.55257355 -9.86724854 6.62512207 C-9.86649448 5.8405085 -9.86574043 5.05589493 -9.86496353 4.24750519 C-9.17040994 -1.02774184 -4.12750115 0.01247551 0 0 Z " fill="#4A2C1A" transform="translate(127.61328125,113.6640625)"/>
<path d="M0 0 C0.77109604 -0.00287018 1.54219208 -0.00574036 2.33665466 -0.00869751 C3.97159558 -0.01073932 5.60656086 -0.00520125 7.24145508 0.00732422 C9.71297837 0.02322446 12.18282796 0.00756064 14.65429688 -0.01171875 C28.53048582 -0.031573 38.27548252 1.704059 48.49609375 11.6484375 C54.79274886 21.90965324 54.99970472 36.13806179 52.45703125 47.703125 C49.57353502 55.41589134 44.95892038 60.3146067 37.85546875 64.3203125 C29.57830418 67.66022101 21.45044939 67.65047859 12.62109375 67.5234375 C10.82188477 67.50990234 10.82188477 67.50990234 8.98632812 67.49609375 C6.05187066 67.47271162 3.11784141 67.4399403 0.18359375 67.3984375 C0.19406738 68.66026855 0.20454102 69.92209961 0.21533203 71.22216797 C0.25146274 75.89238664 0.27446891 80.56259289 0.29345703 85.23291016 C0.30353046 87.25636877 0.3171897 89.27981278 0.33447266 91.30322266 C0.35866222 94.20739339 0.37006324 97.11137211 0.37890625 100.015625 C0.38922882 100.92400116 0.39955139 101.83237732 0.41018677 102.76828003 C0.41033783 103.60900055 0.41048889 104.44972107 0.41064453 105.31591797 C0.41508575 106.05760223 0.41952698 106.7992865 0.42410278 107.56344604 C0.18359375 109.3984375 0.18359375 109.3984375 -1.81640625 111.3984375 C-7.07023374 111.95735532 -7.07023374 111.95735532 -9.48400307 110.14933014 C-11.15022238 107.95977433 -11.19333094 106.80420113 -11.19735718 104.07165527 C-11.20581665 103.18838058 -11.21427612 102.3051059 -11.22299194 101.39506531 C-11.21691925 100.42873672 -11.21084656 99.46240814 -11.20458984 98.46679688 C-11.2098468 97.44705276 -11.21510376 96.42730865 -11.22052002 95.37666321 C-11.23374797 91.99834985 -11.22497183 88.62050584 -11.21484375 85.2421875 C-11.21686368 82.89953521 -11.21977443 80.55688353 -11.22354126 78.2142334 C-11.22796841 73.30145285 -11.22152084 68.38883579 -11.20751953 63.47607422 C-11.19042761 57.17068214 -11.20026668 50.86567312 -11.21823692 44.5602951 C-11.2290641 39.72195537 -11.22563329 34.88370683 -11.21785355 30.04536438 C-11.21584859 27.72007706 -11.21832111 25.39478152 -11.22529221 23.06950378 C-11.23288898 19.8228046 -11.2213269 16.5767306 -11.20458984 13.33007812 C-11.21066254 12.36374954 -11.21673523 11.39742096 -11.22299194 10.40180969 C-11.21453247 9.518535 -11.206073 8.63526031 -11.19735718 7.72521973 C-11.1962261 6.95757545 -11.19509502 6.18993118 -11.19392967 5.39902496 C-10.07158827 -0.54853219 -4.99648098 -0.04096952 0 0 Z " fill="#4B2D1B" transform="translate(363.81640625,113.6015625)"/>
<path d="M0 0 C2.234375 1.546875 2.234375 1.546875 3.234375 3.984375 C3.234375 7.15015257 2.34815897 8.26398831 0.234375 10.546875 C-3.75862151 10.12208814 -7.09472039 9.46655061 -10.828125 7.984375 C-18.17851126 5.4293606 -26.99698496 5.2816554 -34.390625 7.796875 C-38.25301609 9.7995963 -40.80848452 11.63259405 -42.765625 15.546875 C-43.2552275 21.35789479 -43.56927953 26.71454268 -41.203125 32.109375 C-35.13392353 38.17857647 -26.49829283 40.86114446 -18.6796875 44.015625 C-10.75217774 47.31107237 -2.47462819 50.84249402 1.734375 58.734375 C2.1984375 59.57355469 2.6625 60.41273438 3.140625 61.27734375 C7.16325285 69.62429654 6.50467685 82.20117635 3.484375 90.859375 C0.12478017 98.47368163 -4.2221371 102.20333837 -11.765625 105.546875 C-21.99260976 109.07893833 -35.26307118 109.37792945 -45.28515625 105.01171875 C-50.00782861 102.22273901 -54.47092187 98.96363537 -57.765625 94.546875 C-58.11831161 91.29654725 -58.29971607 89.41828675 -56.578125 86.609375 C-54.765625 85.546875 -54.765625 85.546875 -52.4296875 85.734375 C-49.20307318 86.71844506 -47.71910985 88.12748619 -45.328125 90.484375 C-40.07088304 95.66637915 -35.25078651 96.83997083 -27.953125 96.921875 C-20.3122721 96.80084776 -14.6790822 95.53316863 -9.265625 89.984375 C-5.47652056 83.82708028 -6.16201427 76.51385181 -6.765625 69.546875 C-8.31010037 64.1453408 -11.52555864 61.39764933 -16.265625 58.609375 C-20.09123539 56.69395311 -24.00089126 55.01289213 -27.94140625 53.3515625 C-28.86695313 52.960896 -29.7925 52.57022949 -30.74609375 52.16772461 C-32.60138526 51.39250065 -34.4619655 50.62978736 -36.328125 49.88110352 C-44.66541899 46.45059029 -49.73995303 42.7473179 -53.765625 34.546875 C-56.07557787 27.72481419 -56.2069289 16.55371894 -53.265625 9.984375 C-48.93493729 3.14882959 -42.66071771 -1.33345624 -35.015625 -3.796875 C-23.64116377 -6.09364121 -10.37036597 -5.44883636 0 0 Z " fill="#4B2D1B" transform="translate(249.765625,118.453125)"/>
<path d="M0 0 C3.625 0.375 3.625 0.375 7 1 C11.44931506 14.67358236 15.7617421 28.38255626 19.90234375 42.15234375 C20.10827778 42.83711414 20.31421181 43.52188454 20.52638626 44.22740555 C21.99982038 49.12985346 23.46891153 54.0335988 24.9375 58.9375 C26.43142734 63.92433848 27.92688541 68.91071181 29.42517281 73.89624214 C30.0166765 75.86680637 30.60593509 77.83803238 31.1950531 79.80931091 C31.54955032 80.98977493 31.90404755 82.17023895 32.26928711 83.38647461 C32.58046982 84.4258165 32.89165253 85.46515839 33.21226501 86.53599548 C33.92067249 88.9693524 33.92067249 88.9693524 35 91 C35.31906815 89.93368851 35.63813629 88.86737701 35.96687317 87.76875305 C38.975588 77.71702433 41.99151348 67.667484 45.01450062 57.62003803 C46.56839191 52.45455908 48.11973825 47.28834428 49.6652832 42.12036133 C51.15708043 37.13244042 52.65554306 32.14656691 54.15863609 27.1620388 C54.73074567 25.26058444 55.30045527 23.35840625 55.86771584 21.45549965 C56.66302542 18.78909293 57.46685129 16.12539404 58.27270508 13.4621582 C58.50503845 12.67597107 58.73737183 11.88978394 58.97674561 11.07977295 C60.21819422 7.01113651 61.59626687 3.56365375 64 0 C70.75 0.75 70.75 0.75 73 3 C72.85125637 4.84972477 72.85125637 4.84972477 72.29112244 7.06617737 C72.0891519 7.87428423 71.88718136 8.68239109 71.6790905 9.51498604 C70.63222763 13.34579924 69.51961719 17.14851647 68.34204102 20.94116211 C68.08322144 21.78472763 67.82440186 22.62829315 67.55773926 23.49742126 C66.70974462 26.25841732 65.85685171 29.01787354 65.00390625 31.77734375 C64.40829 33.7134092 63.81299403 35.64957321 63.21800232 37.58583069 C61.65551659 42.66768432 60.08891334 47.74825913 58.5213623 52.82855225 C56.93314223 57.97808539 55.34845826 63.12870616 53.76367188 68.27929688 C51.97877416 74.08022133 50.19360784 79.88105982 48.40516663 85.68089294 C48.13354171 86.56259439 47.86191679 87.44429583 47.58206081 88.35271549 C47.06226119 90.03809346 46.54117305 91.72307471 46.01863956 93.40760708 C44.4888788 98.35128319 43.03463638 103.30737729 41.73374939 108.31715393 C41 110 41 110 38 112 C34.5 112.375 34.5 112.375 31 112 C28.02374268 108.95350211 27.0162899 105.51912443 25.78271484 101.50439453 C25.58215485 100.8594957 25.38159485 100.21459686 25.17495728 99.55015564 C24.51256387 97.41333988 23.86171511 95.27319179 23.2109375 93.1328125 C22.74420998 91.61835429 22.27679965 90.10410636 21.80874634 88.59005737 C20.57204418 84.58258909 19.34520785 80.57216404 18.12023926 76.56109619 C16.90807658 72.59868433 15.685915 68.6393611 14.46484375 64.6796875 C12.31774605 57.71237489 10.18762151 50.74002434 8.06646347 43.76477432 C6.70098886 39.28033755 5.31889458 34.80148578 3.9215374 30.32688332 C3.05278872 27.53979976 2.19302349 24.74999576 1.33501053 21.95959091 C0.74229319 20.04305235 0.13794836 18.13012194 -0.46670532 16.21731567 C-0.8171994 15.07165131 -1.16769348 13.92598694 -1.52880859 12.74560547 C-1.99364151 11.25406448 -1.99364151 11.25406448 -2.46786499 9.73239136 C-3.04894802 6.74866312 -2.91316788 4.88604272 -2 2 C-1.34 1.34 -0.68 0.68 0 0 Z " fill="#4B2D1B" transform="translate(267,114)"/>
<path d="M0 0 C4.269375 -0.0825 8.53875 -0.165 12.9375 -0.25 C14.26515381 -0.28641602 15.59280762 -0.32283203 16.96069336 -0.36035156 C24.09338329 -0.42670714 29.90048452 0.06670822 36 4 C41.75034013 9.75034013 42.36292288 15.5529527 42.375 23.3125 C42.41173828 24.53743164 42.41173828 24.53743164 42.44921875 25.78710938 C42.47741126 31.68404202 41.28697009 36.06734377 38 41 C33.90829193 45.09170807 29.60410479 46.81287147 23.84033203 47.22705078 C22.74060059 47.21657715 21.64086914 47.20610352 20.5078125 47.1953125 C19.4264502 47.19031738 18.34508789 47.18532227 17.23095703 47.18017578 C15.87599121 47.16196777 14.52102539 47.14375977 13.125 47.125 C8.79375 47.08375 4.4625 47.0425 0 47 C0 31.49 0 15.98 0 0 Z " fill="#D5E2E5" transform="translate(364,124)"/>
<path d="M0 0 C4.08375 -0.0825 8.1675 -0.165 12.375 -0.25 C14.27451416 -0.30462402 14.27451416 -0.30462402 16.21240234 -0.36035156 C24.57173679 -0.44137059 32.28851555 0.38130266 38.5 6.4375 C41.38703824 11.36952366 42.29378993 15.19350963 42.3125 20.9375 C42.32925781 22.12214844 42.34601563 23.30679688 42.36328125 24.52734375 C41.79427473 29.96655657 39.77127988 33.83486673 35.5625 37.3125 C34.69818359 38.04919922 34.69818359 38.04919922 33.81640625 38.80078125 C29.96572231 41.34306075 25.99106475 41.1181412 21.484375 41.09765625 C20.35741211 41.09515869 19.23044922 41.09266113 18.06933594 41.09008789 C15.93126465 41.07643188 15.93126465 41.07643188 13.75 41.0625 C9.2125 41.041875 4.675 41.02125 0 41 C0 27.47 0 13.94 0 0 Z " fill="#D5E3E6" transform="translate(129,124)"/>
<path d="M0 0 C3.04829053 2.25827845 6.01169314 4.59563484 8.96484375 6.9765625 C10.71353516 8.31161161 12.46339537 9.64513231 14.21484375 10.9765625 C15.48566885 11.94996045 16.74423357 12.94089326 17.96484375 13.9765625 C17.96484375 14.3065625 17.96484375 14.6365625 17.96484375 14.9765625 C-7.11515625 14.9765625 -32.19515625 14.9765625 -58.03515625 14.9765625 C-41.96140611 -1.09718764 -21.94139075 -14.62759383 0 0 Z " fill="#0181C6" transform="translate(276.03515625,29.0234375)"/>
<path d="M0 0 C2.64 1.98 5.28 3.96 8 6 C9.25296875 6.90492188 9.25296875 6.90492188 10.53125 7.828125 C11.1809375 8.29734375 11.830625 8.7665625 12.5 9.25 C13.1703125 9.72953125 13.840625 10.2090625 14.53125 10.703125 C15.0159375 11.13109375 15.500625 11.5590625 16 12 C16 12.66 16 13.32 16 14 C13.5472865 15.63514233 11.10780245 17.1481246 8.5625 18.625 C7.50192383 19.25535156 7.50192383 19.25535156 6.41992188 19.8984375 C1.15834263 23 1.15834263 23 0 23 C0 15.41 0 7.82 0 0 Z " fill="#0280C4" transform="translate(471,182)"/>
<path d="M0 0 C0.33 0 0.66 0 1 0 C1 7.59 1 15.18 1 23 C-10.11607143 16.97321429 -10.11607143 16.97321429 -15 14 C-13.64193059 9.92579178 -10.83071263 8.32883712 -7.5 5.875 C-6.30177812 4.97696959 -5.10384652 4.0785517 -3.90625 3.1796875 C-2.9471875 2.46039063 -1.988125 1.74109375 -1 1 C-0.67 0.67 -0.34 0.34 0 0 Z " fill="#0280C4" transform="translate(40,182)"/>
</svg>
