<?xml version="1.0" encoding="UTF-8"?>
<svg version="1.1" xmlns="http://www.w3.org/2000/svg" width="512" height="512">
<path d="M0 0 C1.01823853 0.00215515 2.03647705 0.0043103 3.08557129 0.00653076 C17.70747424 0.05622604 32.00633932 0.36188758 46.375 3.3125 C47.89383789 3.61051514 47.89383789 3.61051514 49.44335938 3.91455078 C97.33223881 13.49089201 141.79848903 35.78506667 176.87475586 69.90942383 C178.93859956 71.83959628 181.16756034 73.55032168 183.375 75.3125 C184.47309154 76.46716769 185.5374861 77.65499631 186.5625 78.875 C189.33259955 82.1297174 192.19946722 85.25937713 195.125 88.375 C201.1093165 94.95684281 206.30422091 102.01172445 211.375 109.3125 C212.04184814 110.26672852 212.04184814 110.26672852 212.72216797 111.24023438 C225.77673454 130.10901967 235.95320481 150.62667186 243.375 172.3125 C243.64892578 173.0869043 243.92285156 173.86130859 244.20507812 174.65917969 C253.43500283 200.86994176 256.80341484 227.91222614 256.75 255.5625 C256.74918427 257.15105301 256.74918427 257.15105301 256.74835205 258.771698 C256.58274811 329.00962715 227.79894752 391.24474097 179.375 441.3125 C177.49561188 443.10564469 175.58592766 444.80348147 173.58984375 446.46484375 C171.84354723 447.9216308 170.13502023 449.42369359 168.44140625 450.94140625 C142.74643854 473.86658234 111.2138556 491.15538142 78.375 501.3125 C77.24118896 501.66368896 77.24118896 501.66368896 76.08447266 502.02197266 C67.56724042 504.61240769 58.97040003 506.71437025 50.25 508.5 C49.49976563 508.6549292 48.74953125 508.8098584 47.9765625 508.96948242 C32.3127607 512.02798624 16.98244069 512.71819876 1.0625 512.6875 C0.001521 512.68695618 -1.05945801 512.68641235 -2.15258789 512.68585205 C-18.6391791 512.64703011 -34.47176367 511.87963932 -50.625 508.3125 C-51.64835449 508.09287598 -52.67170898 507.87325195 -53.72607422 507.64697266 C-98.89354281 497.73831979 -139.94827683 476.50387258 -173.765625 444.92578125 C-175.74196714 443.11953413 -177.70890091 441.40114346 -179.77734375 439.7109375 C-182.08579368 437.76664634 -184.0079271 435.92353516 -185.9375 433.625 C-188.49457821 430.61568744 -191.12156708 427.70258138 -193.8125 424.8125 C-223.21842707 392.06725579 -242.23635664 350.92250253 -251.375 308.125 C-251.57383789 307.20017822 -251.77267578 306.27535645 -251.97753906 305.32250977 C-255.26941369 289.11581484 -256.0003085 273.18212105 -255.9375 256.6875 C-255.93534485 255.66959381 -255.9331897 254.65168762 -255.93096924 253.60293579 C-255.88129854 238.99386477 -255.63040191 224.66174147 -252.625 210.3125 C-252.42632324 209.33764648 -252.22764648 208.36279297 -252.02294922 207.35839844 C-241.77138226 158.35053302 -219.43217348 114.34635801 -184.625 78.3125 C-184.02606934 77.69165527 -183.42713867 77.07081055 -182.81005859 76.43115234 C-175.14623497 68.52999741 -167.40501606 60.98483045 -158.625 54.3125 C-158.08472168 53.89581055 -157.54444336 53.47912109 -156.98779297 53.04980469 C-125.1187531 28.55165293 -88.56685217 12.06060062 -49.1875 4 C-48.46860596 3.85264404 -47.74971191 3.70528809 -47.0090332 3.5534668 C-31.36274321 0.57960898 -15.88931915 -0.06049808 0 0 Z " fill="#216EB6" transform="translate(255.625,-0.3125)"/>
<path d="M0 0 C1.05970991 -0.00322445 2.11941981 -0.00644889 3.21124214 -0.00977105 C4.38981334 -0.00822245 5.56838454 -0.00667385 6.78267002 -0.00507832 C8.02351323 -0.00734387 9.26435644 -0.00960943 10.54280096 -0.01194364 C14.00277594 -0.01720228 17.4626992 -0.01792455 20.92267454 -0.01674926 C24.64802355 -0.01654601 28.37336468 -0.02205678 32.09871006 -0.02680683 C39.40317633 -0.0351303 46.70763454 -0.03786243 54.01210516 -0.03841921 C59.94646742 -0.03889356 65.880827 -0.04094425 71.81518841 -0.04411983 C88.62175892 -0.05293098 105.42832304 -0.05753848 122.23489588 -0.05678936 C123.14185168 -0.0567494 124.04880749 -0.05670945 124.9832468 -0.05666828 C126.34533196 -0.05660696 126.34533196 -0.05660696 127.73493398 -0.0565444 C142.457811 -0.05613778 157.18066246 -0.06571011 171.90353208 -0.07980665 C187.00280092 -0.09415008 202.10205728 -0.10107796 217.20133311 -0.10021287 C225.68570062 -0.0998802 234.17004134 -0.10265785 242.65440273 -0.11339092 C249.87727543 -0.12246923 257.10010919 -0.12469327 264.32298511 -0.1178815 C268.0112774 -0.11460273 271.69949488 -0.11460809 275.38778019 -0.12323475 C279.37857621 -0.13247333 283.36926135 -0.1263592 287.3600626 -0.11860371 C288.53640308 -0.12374727 289.71274356 -0.12889083 290.92473072 -0.13419026 C291.98704837 -0.12959147 293.04936602 -0.12499267 294.14387512 -0.12025452 C295.06605345 -0.12047188 295.98823178 -0.12068925 296.93835491 -0.12091321 C299.13485813 0.12863445 299.13485813 0.12863445 301.13485813 2.12863445 C301.38654041 4.41501904 301.38654041 4.41501904 301.38882542 7.32895184 C301.39446507 8.43106503 301.40010471 9.53317822 301.40591526 10.66868877 C301.39984257 12.49060993 301.39984257 12.49060993 301.39364719 14.34933758 C301.39890415 16.26153339 301.39890415 16.26153339 301.40426731 18.21235943 C301.41340408 21.71436818 301.40984182 25.21625943 301.40350914 28.7182703 C301.39845578 32.37821431 301.40313874 36.03814807 301.40628147 39.69809246 C301.40992306 45.84504286 301.40511698 51.99194524 301.39560032 58.13888836 C301.38471538 65.25189165 301.38824082 72.3647803 301.39925313 79.47778082 C301.40832054 85.57802422 301.40961397 91.67823305 301.40437579 97.77848101 C301.40125307 101.42488612 301.40085499 105.07123729 301.40744877 108.71763897 C301.41428313 112.78113916 301.40481843 116.84444079 301.39364719 120.90793133 C301.39769566 122.12254543 301.40174412 123.33715954 301.40591526 124.58858013 C301.40027561 125.69069332 301.39463596 126.79280651 301.38882542 127.92831707 C301.38769434 129.37071381 301.38769434 129.37071381 301.38654041 130.84224987 C301.13485813 133.12863445 301.13485813 133.12863445 299.13485813 135.12863445 C296.36359084 135.31673665 293.69305291 135.38040129 290.92147923 135.35568523 C290.07262653 135.35597729 289.22377384 135.35626934 288.34919834 135.35657024 C285.53546114 135.35517373 282.72198674 135.33959749 279.90829563 135.32394695 C277.96059406 135.32021796 276.01289062 135.31737045 274.0651865 135.31537151 C268.93261655 135.30772606 263.80015934 135.28806977 258.66763401 135.26596355 C253.4327659 135.24552473 248.19787962 135.236374 242.96298313 135.2262907 C232.68689186 135.20482472 222.41088436 135.17067781 212.13485813 135.12863445 C211.7430637 134.21283611 211.7430637 134.21283611 211.34335423 133.2785368 C210.99353489 132.4736784 210.64371555 131.66882 210.28329563 130.83957195 C209.7677512 129.64533611 209.7677512 129.64533611 209.24179173 128.4269743 C206.17537151 122.06012827 201.86521823 118.86309982 195.25985813 116.44113445 C189.91936856 115.65576834 185.27988111 116.02507119 180.07235813 117.25363445 C175.47366193 118.26464553 172.63394227 117.62832917 168.13485813 116.12863445 C161.94819871 115.62971031 156.78403664 116.46560947 151.13485813 119.12863445 C148.75693834 121.16908409 148.75693834 121.16908409 147.13485813 123.12863445 C146.47485813 123.12863445 145.81485813 123.12863445 145.13485813 123.12863445 C144.61923313 122.53050945 144.10360813 121.93238445 143.57235813 121.31613445 C138.80223496 117.03525468 132.58390037 115.66758621 126.23642063 115.8825407 C123.79616787 116.16829521 121.46571037 116.70048809 119.07235813 117.25363445 C114.48441687 118.26382335 111.61766465 117.65109704 107.13485813 116.12863445 C100.11982072 115.47909395 93.38814282 117.11168469 87.75985813 121.44113445 C83.69437886 125.60341085 82.17027142 129.5051054 81.13485813 135.12863445 C70.08679382 135.17490456 59.03875242 135.21047649 47.99061108 135.2322588 C42.86092433 135.24271138 37.7313037 135.25689739 32.60165501 135.27951336 C27.65445776 135.30118928 22.70732425 135.31319196 17.7600832 135.31838894 C15.86936915 135.32209416 13.97865872 135.32932918 12.08797169 135.34009457 C9.44678457 135.35453978 6.80586333 135.35661534 4.16464329 135.35568523 C3.37702106 135.36287579 2.58939884 135.37006634 1.77790928 135.37747478 C-3.63703755 135.35673878 -3.63703755 135.35673878 -5.86514187 133.12863445 C-6.11403084 130.82383919 -6.11403084 130.82383919 -6.11238003 127.88362408 C-6.11657452 126.77165157 -6.120769 125.65967907 -6.1250906 124.51401043 C-6.11947109 123.28847454 -6.11385159 122.06293865 -6.10806179 120.80026531 C-6.10996014 119.51410824 -6.11185848 118.22795116 -6.11381435 116.90281963 C-6.11867017 113.36987869 -6.11099827 109.83706366 -6.10086131 106.30413795 C-6.09209431 102.61303421 -6.09383798 98.92193458 -6.09422207 95.23082256 C-6.09328491 89.03259447 -6.08459342 82.83441528 -6.07095242 76.63620281 C-6.05521942 69.46072215 -6.04995452 62.28529504 -6.05068797 55.10979837 C-6.05129741 48.21774451 -6.04620011 41.32570816 -6.03789616 34.43365955 C-6.03435728 31.49547025 -6.03253205 28.55728714 -6.03200245 25.6190958 C-6.03081536 21.5219076 -6.02111931 17.42478341 -6.01040554 13.32760906 C-6.01085873 12.10004894 -6.01131191 10.87248882 -6.01177883 9.60772991 C-6.00751385 8.49857723 -6.00324886 7.38942455 -5.99885464 6.24666119 C-5.99717879 5.27676723 -5.99550295 4.30687326 -5.99377632 3.30758858 C-5.75201956 -0.78755768 -3.58349147 0.00273781 0 0 Z " fill="#1F71B8" transform="translate(108.86514186859131,124.87136554718018)"/>
<path d="M0 0 C1.05970991 -0.00322445 2.11941981 -0.00644889 3.21124214 -0.00977105 C4.38981334 -0.00822245 5.56838454 -0.00667385 6.78267002 -0.00507832 C8.02351323 -0.00734387 9.26435644 -0.00960943 10.54280096 -0.01194364 C14.00277594 -0.01720228 17.4626992 -0.01792455 20.92267454 -0.01674926 C24.64802355 -0.01654601 28.37336468 -0.02205678 32.09871006 -0.02680683 C39.40317633 -0.0351303 46.70763454 -0.03786243 54.01210516 -0.03841921 C59.94646742 -0.03889356 65.880827 -0.04094425 71.81518841 -0.04411983 C88.62175892 -0.05293098 105.42832304 -0.05753848 122.23489588 -0.05678936 C123.14185168 -0.0567494 124.04880749 -0.05670945 124.9832468 -0.05666828 C126.34533196 -0.05660696 126.34533196 -0.05660696 127.73493398 -0.0565444 C142.457811 -0.05613778 157.18066246 -0.06571011 171.90353208 -0.07980665 C187.00280092 -0.09415008 202.10205728 -0.10107796 217.20133311 -0.10021287 C225.68570062 -0.0998802 234.17004134 -0.10265785 242.65440273 -0.11339092 C249.87727543 -0.12246923 257.10010919 -0.12469327 264.32298511 -0.1178815 C268.0112774 -0.11460273 271.69949488 -0.11460809 275.38778019 -0.12323475 C279.37857621 -0.13247333 283.36926135 -0.1263592 287.3600626 -0.11860371 C288.53640308 -0.12374727 289.71274356 -0.12889083 290.92473072 -0.13419026 C291.98704837 -0.12959147 293.04936602 -0.12499267 294.14387512 -0.12025452 C295.06605345 -0.12047188 295.98823178 -0.12068925 296.93835491 -0.12091321 C299.13485813 0.12863445 299.13485813 0.12863445 301.13485813 2.12863445 C301.38654041 4.41501904 301.38654041 4.41501904 301.38882542 7.32895184 C301.39446507 8.43106503 301.40010471 9.53317822 301.40591526 10.66868877 C301.39984257 12.49060993 301.39984257 12.49060993 301.39364719 14.34933758 C301.39890415 16.26153339 301.39890415 16.26153339 301.40426731 18.21235943 C301.41340408 21.71436818 301.40984182 25.21625943 301.40350914 28.7182703 C301.39845578 32.37821431 301.40313874 36.03814807 301.40628147 39.69809246 C301.40992306 45.84504286 301.40511698 51.99194524 301.39560032 58.13888836 C301.38471538 65.25189165 301.38824082 72.3647803 301.39925313 79.47778082 C301.40832054 85.57802422 301.40961397 91.67823305 301.40437579 97.77848101 C301.40125307 101.42488612 301.40085499 105.07123729 301.40744877 108.71763897 C301.41428313 112.78113916 301.40481843 116.84444079 301.39364719 120.90793133 C301.39769566 122.12254543 301.40174412 123.33715954 301.40591526 124.58858013 C301.40027561 125.69069332 301.39463596 126.79280651 301.38882542 127.92831707 C301.38769434 129.37071381 301.38769434 129.37071381 301.38654041 130.84224987 C301.13485813 133.12863445 301.13485813 133.12863445 299.13485813 135.12863445 C296.36359084 135.31673665 293.69305291 135.38040129 290.92147923 135.35568523 C290.07262653 135.35597729 289.22377384 135.35626934 288.34919834 135.35657024 C285.53546114 135.35517373 282.72198674 135.33959749 279.90829563 135.32394695 C277.96059406 135.32021796 276.01289062 135.31737045 274.0651865 135.31537151 C268.93261655 135.30772606 263.80015934 135.28806977 258.66763401 135.26596355 C253.4327659 135.24552473 248.19787962 135.236374 242.96298313 135.2262907 C232.68689186 135.20482472 222.41088436 135.17067781 212.13485813 135.12863445 C211.7430637 134.21283611 211.7430637 134.21283611 211.34335423 133.2785368 C210.99353489 132.4736784 210.64371555 131.66882 210.28329563 130.83957195 C209.7677512 129.64533611 209.7677512 129.64533611 209.24179173 128.4269743 C206.17537151 122.06012827 201.86521823 118.86309982 195.25985813 116.44113445 C189.91936856 115.65576834 185.27988111 116.02507119 180.07235813 117.25363445 C175.47366193 118.26464553 172.63394227 117.62832917 168.13485813 116.12863445 C161.94819871 115.62971031 156.78403664 116.46560947 151.13485813 119.12863445 C148.75693834 121.16908409 148.75693834 121.16908409 147.13485813 123.12863445 C146.47485813 123.12863445 145.81485813 123.12863445 145.13485813 123.12863445 C144.61923313 122.53050945 144.10360813 121.93238445 143.57235813 121.31613445 C138.80223496 117.03525468 132.58390037 115.66758621 126.23642063 115.8825407 C123.79616787 116.16829521 121.46571037 116.70048809 119.07235813 117.25363445 C114.48441687 118.26382335 111.61766465 117.65109704 107.13485813 116.12863445 C100.11982072 115.47909395 93.38814282 117.11168469 87.75985813 121.44113445 C83.69437886 125.60341085 82.17027142 129.5051054 81.13485813 135.12863445 C70.08679382 135.17490456 59.03875242 135.21047649 47.99061108 135.2322588 C42.86092433 135.24271138 37.7313037 135.25689739 32.60165501 135.27951336 C27.65445776 135.30118928 22.70732425 135.31319196 17.7600832 135.31838894 C15.86936915 135.32209416 13.97865872 135.32932918 12.08797169 135.34009457 C9.44678457 135.35453978 6.80586333 135.35661534 4.16464329 135.35568523 C3.37702106 135.36287579 2.58939884 135.37006634 1.77790928 135.37747478 C-3.63703755 135.35673878 -3.63703755 135.35673878 -5.86514187 133.12863445 C-6.11403084 130.82383919 -6.11403084 130.82383919 -6.11238003 127.88362408 C-6.11657452 126.77165157 -6.120769 125.65967907 -6.1250906 124.51401043 C-6.11947109 123.28847454 -6.11385159 122.06293865 -6.10806179 120.80026531 C-6.10996014 119.51410824 -6.11185848 118.22795116 -6.11381435 116.90281963 C-6.11867017 113.36987869 -6.11099827 109.83706366 -6.10086131 106.30413795 C-6.09209431 102.61303421 -6.09383798 98.92193458 -6.09422207 95.23082256 C-6.09328491 89.03259447 -6.08459342 82.83441528 -6.07095242 76.63620281 C-6.05521942 69.46072215 -6.04995452 62.28529504 -6.05068797 55.10979837 C-6.05129741 48.21774451 -6.04620011 41.32570816 -6.03789616 34.43365955 C-6.03435728 31.49547025 -6.03253205 28.55728714 -6.03200245 25.6190958 C-6.03081536 21.5219076 -6.02111931 17.42478341 -6.01040554 13.32760906 C-6.01085873 12.10004894 -6.01131191 10.87248882 -6.01177883 9.60772991 C-6.00751385 8.49857723 -6.00324886 7.38942455 -5.99885464 6.24666119 C-5.99717879 5.27676723 -5.99550295 4.30687326 -5.99377632 3.30758858 C-5.75201956 -0.78755768 -3.58349147 0.00273781 0 0 Z M39.13485813 22.12863445 C38.62332443 23.71663742 38.17190424 25.32445943 37.75985813 26.94113445 C36.1548674 32.48274425 34.38471033 35.77872313 29.32235813 38.81613445 C25.97608633 40.19401108 22.6217363 41.17145221 19.13485813 42.12863445 C17.53986701 43.72362558 17.99960407 45.39120492 17.98959446 47.60080242 C17.98321461 48.55203991 17.97683475 49.5032774 17.97026157 50.48334026 C17.96914875 51.51870922 17.96803593 52.55407818 17.96688938 53.62082195 C17.96356098 54.67770214 17.96023258 55.73458233 17.95680332 56.82348919 C17.951729 59.06468551 17.94939515 61.30588942 17.9495554 63.54709148 C17.94737192 66.98195108 17.92922965 70.41648814 17.91024876 73.8512907 C17.90731439 76.02446668 17.90532988 78.1976442 17.90438938 80.37082195 C17.89720387 81.40214245 17.89001835 82.43346294 17.88261509 83.49603558 C17.88569172 84.45357738 17.88876835 85.41111919 17.89193821 86.39767742 C17.89051319 87.24071423 17.88908817 88.08375103 17.88761997 88.9523344 C18.00019662 91.42197923 18.00019662 91.42197923 20.13485813 94.12863445 C22.12241088 94.77952216 22.12241088 94.77952216 24.38485813 95.06613445 C28.7508707 95.92950993 31.69424151 97.17953449 35.13485813 100.12863445 C37.86836267 104.37027942 38.55086816 108.16471972 39.13485813 113.12863445 C40.95254963 114.94632595 43.46678124 114.25396793 45.88649702 114.26237786 C46.71945594 114.26014714 47.55241487 114.25791641 48.41061497 114.2556181 C49.72778389 114.25795808 49.72778389 114.25795808 51.07156229 114.26034534 C54.03733904 114.26435925 57.00306531 114.26116419 59.96884251 114.25802898 C62.08556746 114.25938285 64.20229219 114.2611627 66.31901646 114.26333904 C72.08537525 114.2679151 77.85171625 114.26612311 83.61807537 114.26295996 C89.63811512 114.26043724 95.65815329 114.26277364 101.67819309 114.26434612 C111.78989023 114.26616808 121.90158007 114.26376083 132.0132761 114.25900555 C143.72223447 114.25356288 155.43117543 114.25532552 167.14013338 114.26083195 C177.17320865 114.26536234 187.20627865 114.26601399 197.23935461 114.26339328 C203.24042929 114.2618301 209.24149577 114.26163787 215.24256992 114.26492977 C220.88296611 114.26780741 226.52333974 114.26583477 232.16373348 114.26003551 C234.24028772 114.25870734 236.31684383 114.259103 238.39339733 114.26129818 C241.21532474 114.26400745 244.03717864 114.26063132 246.8591013 114.2556181 C248.10853968 114.25896418 248.10853968 114.25896418 249.38321924 114.26237786 C253.06005083 114.60014694 253.06005083 114.60014694 256.13485813 113.12863445 C256.4305804 111.73786139 256.69651502 110.34069836 256.94735813 108.94113445 C258.09624259 103.62754382 260.0008737 99.835822 264.32235813 96.37863445 C267.58850569 94.92701332 270.73333727 94.26631606 274.24423313 93.6559782 C275.18009251 93.39494305 275.18009251 93.39494305 276.13485813 93.12863445 C277.33630027 90.72575018 277.26797839 89.21023694 277.2801218 86.52707195 C277.28650166 85.5726823 277.29288151 84.61829266 277.29945469 83.63498211 C277.30056751 82.60163738 277.30168034 81.56829266 277.30282688 80.50363445 C277.30615528 79.44579754 277.30948368 78.38796062 277.31291294 77.29806805 C277.31798169 75.05865191 277.32032128 72.8192282 277.32016087 70.57980633 C277.32234909 67.1428318 277.3405103 63.70617722 277.35946751 60.26925945 C277.36240101 58.09738556 277.36438609 55.92551013 277.36532688 53.75363445 C277.37610516 52.20361736 277.37610516 52.20361736 277.38710117 50.6222868 C277.38402454 49.66789715 277.38094791 48.7135075 277.37777805 47.73019695 C277.37991558 46.46683514 277.37991558 46.46683514 277.38209629 45.17795086 C277.32166086 42.90388911 277.32166086 42.90388911 275.13485813 41.12863445 C273.16755931 40.67149032 273.16755931 40.67149032 270.94735813 40.37863445 C265.81793149 39.2800616 262.24506266 37.44224237 259.13485813 33.12863445 C258.07529396 30.27224283 257.34772636 27.50326226 256.74032688 24.51925945 C256.30975416 21.96229185 256.30975416 21.96229185 254.13485813 20.12863445 C251.33125972 19.93081716 248.62632903 19.8594361 245.82150364 19.87466717 C244.95140927 19.87154719 244.0813149 19.86842721 243.18485403 19.86521268 C240.25210539 19.8571978 237.31956166 19.86356985 234.38681126 19.86984539 C232.29126457 19.86713708 230.19571883 19.86357705 228.1001749 19.85922527 C222.39577193 19.85008001 216.691441 19.85365431 210.98703671 19.85998344 C205.02886219 19.86503241 199.07069401 19.86035508 193.11251926 19.85721111 C183.10514304 19.85356824 173.09779629 19.85837898 163.09042454 19.86789227 C151.50584726 19.87877742 139.92134038 19.87525207 128.33676481 19.86423945 C118.40640836 19.85517572 108.47607315 19.85387682 98.5457139 19.85911679 C92.60777062 19.86224153 86.66986047 19.86263206 80.73191929 19.85604382 C75.15057726 19.85028425 69.56932634 19.85424169 63.98799419 19.86583233 C61.93443612 19.86848638 59.88087042 19.86770122 57.82731533 19.863307 C55.03417607 19.85787937 52.24133278 19.86465161 49.44821262 19.87466717 C48.62663056 19.87020572 47.80504849 19.86574428 46.95857 19.86114764 C42.57880692 19.71768491 42.57880692 19.71768491 39.13485813 22.12863445 Z " fill="#FDFEFE" transform="translate(108.86514186859131,124.87136554718018)"/>
<path d="M0 0 C1.44574662 -0.00967334 1.44574662 -0.00967334 2.92070025 -0.0195421 C4.50486718 -0.01489629 4.50486718 -0.01489629 6.12103748 -0.01015663 C7.24516554 -0.01468774 8.3692936 -0.01921886 9.52748615 -0.02388728 C13.30828911 -0.03658506 17.08894902 -0.03490741 20.869771 -0.03325844 C23.57494115 -0.038152 26.28010115 -0.0459883 28.98526478 -0.05361366 C35.57979553 -0.07023229 42.17429052 -0.07572364 48.76884045 -0.07683842 C54.1305156 -0.0777887 59.49217895 -0.08189802 64.85385036 -0.08823967 C80.05779063 -0.10585621 95.26170266 -0.11507816 110.4656532 -0.11357872 C111.28543786 -0.11349881 112.10522251 -0.1134189 112.94984913 -0.11333656 C114.18102944 -0.11321392 114.18102944 -0.11321392 115.43708209 -0.1130888 C128.73244135 -0.11227629 142.02768721 -0.13140396 155.32301369 -0.1596133 C168.9771317 -0.18835499 182.63119444 -0.20215281 196.28534347 -0.20042574 C203.95000101 -0.19976217 211.61453976 -0.20523961 219.27917004 -0.22678185 C225.8068184 -0.24501083 232.33429415 -0.24932715 238.86195698 -0.235763 C242.19080887 -0.22924109 245.51906009 -0.23126833 248.84792423 -0.2464695 C252.46196231 -0.26190291 256.07513333 -0.2526249 259.68915272 -0.23720741 C261.25658923 -0.2526381 261.25658923 -0.2526381 262.85569113 -0.26838052 C270.28034452 -0.19847466 276.62740802 1.17013251 282.37880421 6.10883141 C282.82224171 6.69406578 283.26567921 7.27930016 283.72255421 7.88226891 C284.18661671 8.47265953 284.65067921 9.06305016 285.12880421 9.67133141 C288.3527498 14.34605252 287.40689027 19.76467046 287.41005421 25.25726891 C287.4223003 26.37617516 287.43454639 27.49508141 287.44716358 28.64789391 C287.44909718 29.71523766 287.45103077 30.78258141 287.45302296 31.88226891 C287.45713184 32.86453453 287.46124073 33.84680016 287.46547413 34.85883141 C287.22255421 37.25726891 287.22255421 37.25726891 285.22255421 39.25726891 C283.04002571 39.50796723 283.04002571 39.50796723 280.26559925 39.50895119 C279.21086509 39.51416668 278.15613092 39.51938218 277.06943512 39.52475572 C275.90155866 39.52029427 274.73368219 39.51583283 273.53041553 39.51123619 C272.296885 39.51435617 271.06335447 39.51747615 269.79244423 39.52069068 C266.35747215 39.52731066 262.92271726 39.5248971 259.48775816 39.51871824 C255.78764454 39.51420952 252.08755047 39.52116963 248.38744068 39.52667809 C241.13456859 39.53559069 233.88173779 39.53364179 226.62886405 39.5278528 C220.73647614 39.52334364 214.84409984 39.52272017 208.9517107 39.52490044 C207.6957447 39.52536014 207.6957447 39.52536014 206.41440564 39.52582912 C204.71364617 39.52646855 203.0128867 39.52711697 201.31212723 39.5277743 C185.34853248 39.53348307 169.38496066 39.52691115 153.42136967 39.51617357 C139.71153167 39.50723756 126.00172753 39.50878945 112.29189014 39.51801109 C96.38703541 39.52870409 80.48220081 39.5329337 64.57734299 39.52678657 C62.88269457 39.52614944 61.18804614 39.5255207 59.49339771 39.52490044 C58.65950781 39.52459189 57.82561791 39.52428333 56.96645862 39.52396543 C51.07831835 39.52223558 45.1901908 39.52515984 39.3020525 39.52985954 C32.13043659 39.53545762 24.95886448 39.53397464 17.78725362 39.52329805 C14.12528557 39.51802681 10.46339065 39.51600915 6.80142307 39.52259636 C2.83913793 39.5296162 -1.12302634 39.52125803 -5.08530712 39.51123619 C-6.25318358 39.51569763 -7.42106005 39.52015908 -8.62432671 39.52475572 C-9.67906087 39.51954022 -10.73379503 39.51432473 -11.82049084 39.50895119 C-12.73605157 39.50862648 -13.6516123 39.50830178 -14.5949173 39.50796723 C-16.77744579 39.25726891 -16.77744579 39.25726891 -18.77744579 37.25726891 C-19.26112136 33.54922506 -19.14785332 29.80574273 -19.15244579 26.06976891 C-19.17693798 25.0404525 -19.20143017 24.01113609 -19.22666454 22.95062828 C-19.25503385 15.5698797 -18.305481 11.11164737 -13.21494579 5.55023766 C-8.74939178 2.11612954 -5.69042151 0.00963547 0 0 Z " fill="#FCFDFE" transform="translate(120.77744579315186,347.74273109436035)"/>
<path d="M0 0 C13.2 0 26.4 0 40 0 C40 12.21 40 24.42 40 37 C42.64 37 45.28 37 48 37 C50 39 50 39 50 52 C30.53 52 11.06 52 -9 52 C-9 38 -9 38 -8 37 C-5.36 37 -2.72 37 0 37 C0 24.79 0 12.58 0 0 Z " fill="#FDFEFE" transform="translate(135,289)"/>
<path d="M0 0 C13.2 0 26.4 0 40 0 C40 12.21 40 24.42 40 37 C42.31 37 44.62 37 47 37 C49 39 49 39 49 52 C29.53 52 10.06 52 -10 52 C-10 39 -10 39 -8 37 C-5.36 37 -2.72 37 0 37 C0 24.79 0 12.58 0 0 Z " fill="#FCFDFE" transform="translate(338,289)"/>
<path d="M0 0 C2.01182457 1.31542376 4.01399663 2.6459068 6 4 C9.27396279 3.2386133 11.19064465 1.87290357 14 0 C19.74019225 -0.96442648 24.66684294 -0.80035436 29.5 2.625 C33.72234328 6.31955037 35.69605626 9.69871172 36.4375 15.3125 C35.40761688 23.99294344 31.0243004 29.94612038 25 36 C24.17169678 36.85609863 24.17169678 36.85609863 23.32666016 37.72949219 C21.40795825 39.69880493 19.45872593 41.63304101 17.5 43.5625 C16.8711792 44.20727295 16.2423584 44.8520459 15.59448242 45.51635742 C12.3461129 48.63365906 10.93476281 49.95944415 6.30859375 50.16015625 C2.68777249 48.89051762 1.10405966 47.70963176 -1.4375 44.875 C-4.26522873 41.83531205 -7.07315051 38.98679702 -10.25 36.3125 C-15.44411767 31.84266169 -20.49226087 27.08863616 -21.37109375 20.01171875 C-21.59359951 8.87334203 -21.59359951 8.87334203 -17.54296875 4.30078125 C-12.49766737 0.04740059 -6.39073862 -1.1332754 0 0 Z " fill="#FCFDFE" transform="translate(248,260)"/>
<path d="M0 0 C0.84691406 -0.02449219 1.69382813 -0.04898438 2.56640625 -0.07421875 C9.73913489 -0.10768405 13.17886327 2.19512321 18.625 6.8125 C21.76082052 10.79062829 21.35942882 15.39007123 21.19921875 20.24609375 C20.77199365 23.22180942 20.22879951 24.8844581 18.625 27.375 C18.00625 28.365 17.3875 29.355 16.75 30.375 C17.29018811 33.18672873 17.29018811 33.18672873 18.75 35.375 C20.69345974 39.26191948 19.93480803 44.10014581 19.9375 48.375 C19.94974609 49.39851563 19.96199219 50.42203125 19.97460938 51.4765625 C19.97750977 52.94222656 19.97750977 52.94222656 19.98046875 54.4375 C19.98457764 55.33597656 19.98868652 56.23445313 19.99291992 57.16015625 C19.75 59.375 19.75 59.375 17.75 61.375 C14.21428571 60.83928571 14.21428571 60.83928571 12.75 59.375 C12.60540295 57.9234394 12.52302889 56.46554714 12.46875 55.0078125 C12.43136719 54.12222656 12.39398438 53.23664063 12.35546875 52.32421875 C12.32066406 51.39222656 12.28585938 50.46023437 12.25 49.5 C12.18105461 47.66911697 12.10829824 45.83837244 12.03125 44.0078125 C12.00095703 43.19199707 11.97066406 42.37618164 11.93945312 41.53564453 C11.8182762 39.19290686 11.8182762 39.19290686 10.75 36.375 C6.13 35.715 1.51 35.055 -3.25 34.375 C-3.22679687 36.15648437 -3.20359375 37.93796875 -3.1796875 39.7734375 C-3.16093333 42.09895416 -3.14273276 44.42447533 -3.125 46.75 C-3.10824219 47.925625 -3.09148437 49.10125 -3.07421875 50.3125 C-3.06777344 51.43398437 -3.06132812 52.55546875 -3.0546875 53.7109375 C-3.04421387 54.74782715 -3.03374023 55.7847168 -3.02294922 56.85302734 C-3.25 59.375 -3.25 59.375 -5.25 61.375 C-7.8125 61.125 -7.8125 61.125 -10.25 60.375 C-11.54005823 57.79488355 -11.38407635 55.9280816 -11.39526367 53.0390625 C-11.40164352 51.92450684 -11.40802338 50.80995117 -11.41459656 49.66162109 C-11.41626579 47.84911865 -11.41626579 47.84911865 -11.41796875 46 C-11.42129715 44.76459473 -11.42462555 43.52918945 -11.42805481 42.25634766 C-11.4331249 39.64030328 -11.43546311 37.02425241 -11.43530273 34.40820312 C-11.43522122 31.71933299 -11.44219846 29.03063228 -11.45581055 26.34179688 C-11.4740503 22.47781109 -11.47903555 18.61402442 -11.48046875 14.75 C-11.48765427 13.54166504 -11.49483978 12.33333008 -11.50224304 11.08837891 C-11.49916641 9.97382324 -11.49608978 8.85926758 -11.49291992 7.7109375 C-11.49434494 6.72657715 -11.49576996 5.7422168 -11.49723816 4.72802734 C-10.85040806 -1.42801632 -4.75179995 0.00710284 0 0 Z " fill="#F5F9FC" transform="translate(175.25,161.625)"/>
<path d="M0 0 C0.84691406 -0.02449219 1.69382812 -0.04898438 2.56640625 -0.07421875 C8.14363046 -0.10024001 11.33826595 0.64983781 15.75 4.375 C20.58106777 9.85891476 21.10024743 13.18039399 21.03125 20.390625 C20.53154276 25.69307409 17.9992295 28.24764655 14.1875 31.6875 C10.24573719 34.41641272 7.24171396 34.48781413 2.5625 34.4375 C0.93248047 34.42396484 0.93248047 34.42396484 -0.73046875 34.41015625 C-1.56191406 34.39855469 -2.39335937 34.38695312 -3.25 34.375 C-3.23952637 35.12185059 -3.22905273 35.86870117 -3.21826172 36.63818359 C-3.1767923 40.00875508 -3.15070271 43.379273 -3.125 46.75 C-3.10824219 47.925625 -3.09148437 49.10125 -3.07421875 50.3125 C-3.06777344 51.43398437 -3.06132812 52.55546875 -3.0546875 53.7109375 C-3.04421387 54.74782715 -3.03374023 55.7847168 -3.02294922 56.85302734 C-3.25 59.375 -3.25 59.375 -5.25 61.375 C-7.8125 61.125 -7.8125 61.125 -10.25 60.375 C-11.54005823 57.79488355 -11.38407635 55.9280816 -11.39526367 53.0390625 C-11.40164352 51.92450684 -11.40802338 50.80995117 -11.41459656 49.66162109 C-11.41626579 47.84911865 -11.41626579 47.84911865 -11.41796875 46 C-11.42129715 44.76459473 -11.42462555 43.52918945 -11.42805481 42.25634766 C-11.4331249 39.64030328 -11.43546311 37.02425241 -11.43530273 34.40820312 C-11.43522122 31.71933299 -11.44219846 29.03063228 -11.45581055 26.34179688 C-11.4740503 22.47781109 -11.47903555 18.61402442 -11.48046875 14.75 C-11.48765427 13.54166504 -11.49483978 12.33333008 -11.50224304 11.08837891 C-11.49916641 9.97382324 -11.49608978 8.85926758 -11.49291992 7.7109375 C-11.49434494 6.72657715 -11.49576996 5.7422168 -11.49723816 4.72802734 C-10.85040806 -1.42801632 -4.75179995 0.00710284 0 0 Z " fill="#F4F8FB" transform="translate(327.25,161.625)"/>
<path d="M0 0 C0.59296875 0.37898437 1.1859375 0.75796875 1.796875 1.1484375 C4.84420425 3.39690788 4.84420425 3.39690788 7.796875 2.3984375 C9.572055 1.31360528 11.3158654 0.1774439 13.046875 -0.9765625 C17.82561498 -1.68391472 22.46294757 -1.79875316 26.609375 0.8984375 C29.046875 3.0234375 29.046875 3.0234375 30.046875 5.0234375 C29.20125 5.04921875 28.355625 5.075 27.484375 5.1015625 C17.60464891 5.54119503 17.60464891 5.54119503 9.046875 10.0234375 C2.80313118 16.93810993 1.60171318 21.9183165 1.7578125 31.17578125 C2.13414284 36.1850432 3.48038882 39.76435828 6.046875 44.0234375 C6.624375 45.0340625 7.201875 46.0446875 7.796875 47.0859375 C8.209375 47.7253125 8.621875 48.3646875 9.046875 49.0234375 C6.984375 49.9609375 6.984375 49.9609375 4.046875 50.0234375 C2.12032243 48.53176209 0.57400449 46.84814073 -1.0703125 45.05078125 C-2.91172893 43.06801128 -4.82923172 41.33610081 -6.890625 39.5859375 C-8.24689841 38.40084423 -9.60102272 37.21328751 -10.953125 36.0234375 C-11.66082031 35.40726562 -12.36851562 34.79109375 -13.09765625 34.15625 C-19.27971987 28.44443612 -22.2250603 22.71541001 -23.515625 14.3984375 C-22.64045486 9.14741667 -20.37942912 5.17279376 -16.37890625 1.62890625 C-11.5041274 -1.58685695 -5.36602605 -2.68301303 0 0 Z " fill="#F8FAFD" transform="translate(218.953125,247.9765625)"/>
<path d="M0 0 C3.4375 2 3.4375 2 6 4 C9.15722061 4.29850538 9.15722061 4.29850538 11.6875 2 C15.62868649 -0.37958429 18.56007924 -0.79968554 23 0 C28.71550006 1.69035122 32.28935381 4.56194645 35.15234375 9.79296875 C36.89853218 14.33949623 36.8191616 18.45096185 35.3359375 23.06640625 C31.81200133 30.89567312 25.52497729 36.81055308 19.05078125 42.25390625 C17.61867283 43.47324427 16.22227366 44.73522763 14.85546875 46.02734375 C13.81326172 47.00380859 13.81326172 47.00380859 12.75 48 C12.12609375 48.598125 11.5021875 49.19625 10.859375 49.8125 C9 51 9 51 6.765625 50.6875 C6.18296875 50.460625 5.6003125 50.23375 5 50 C6.06911188 47.8467887 7.15514556 45.70992481 8.2890625 43.58984375 C12.10080737 36.02208127 13.75077175 29.55749564 11.1484375 21.296875 C8.51196403 15.30652031 5.14824738 10.57452233 -1 8 C-6.26379595 6.80774422 -11.62656162 6.37822746 -17 6 C-11.35208826 0.203459 -8.05620124 -0.95288402 0 0 Z " fill="#F9FBFD" transform="translate(278,247)"/>
<path d="M0 0 C19.47 0 38.94 0 59 0 C59 4.29 59 8.58 59 13 C57 15 57 15 54.64024353 15.24723816 C53.65286697 15.24581314 52.66549042 15.24438812 51.64819336 15.24291992 C50.53041 15.24599655 49.41262665 15.24907318 48.26097107 15.25224304 C47.04949905 15.24505753 45.83802704 15.23787201 44.58984375 15.23046875 C43.3520668 15.23001053 42.11428986 15.22955231 40.83900452 15.2290802 C37.54641953 15.2252786 34.25402641 15.21225824 30.96148682 15.19561768 C27.60648353 15.18216164 24.2515137 15.18534184 20.89648438 15.18554688 C18.35676883 15.18063168 15.81705485 15.17480335 13.27734375 15.16796875 C12.0638475 15.16685593 10.85035126 15.1657431 9.6000824 15.16459656 C7.9281356 15.15502678 7.9281356 15.15502678 6.22241211 15.14526367 C5.23583115 15.14145187 4.24925018 15.13764008 3.23277283 15.13371277 C1 15 1 15 0 14 C0 9.38 0 4.76 0 0 Z " fill="#FCFDFE" transform="translate(126,267)"/>
<path d="M0 0 C19.47 0 38.94 0 59 0 C59 4.29 59 8.58 59 13 C56.40813164 15.59186836 55.36173372 15.25285316 51.75585938 15.25878906 C50.11405701 15.26824554 50.11405701 15.26824554 48.43908691 15.27789307 C47.25262573 15.2738446 46.06616455 15.26979614 44.84375 15.265625 C43.63054077 15.26753845 42.41733154 15.2694519 41.1673584 15.27142334 C38.59838657 15.27278634 36.02940788 15.26908192 33.46044922 15.26074219 C29.51644496 15.2500446 25.57289625 15.26063394 21.62890625 15.2734375 C19.13801982 15.27211593 16.64713368 15.26955358 14.15625 15.265625 C12.37655823 15.27169769 12.37655823 15.27169769 10.56091309 15.27789307 C9.46637817 15.27158875 8.37184326 15.26528442 7.24414062 15.25878906 C6.27754517 15.25719788 5.31094971 15.25560669 4.31506348 15.25396729 C2 15 2 15 0 13 C0 8.71 0 4.42 0 0 Z " fill="#FDFDFE" transform="translate(328,267)"/>
<path d="M0 0 C2.34375 0.0390625 2.34375 0.0390625 5 1 C6.44805018 3.15302197 7.45667234 5.0296227 8.5 7.375 C9.1783791 8.81380506 9.85676507 10.25260688 10.53515625 11.69140625 C10.91430176 12.5127002 11.29344727 13.33399414 11.68408203 14.18017578 C13.21365732 17.45783711 14.78901254 20.71233155 16.37109375 23.96484375 C18.70049045 28.76122042 21.02828083 33.55827769 23.33984375 38.36328125 C23.82831787 39.37688721 24.31679199 40.39049316 24.82006836 41.43481445 C26 44 26 44 27 47 C28.52513418 43.84974918 30.04948208 40.69912118 31.57250977 37.54785156 C32.8592782 34.88568555 34.14922561 32.2250911 35.44116211 29.56542969 C38.21289285 23.84941521 40.97353997 18.13847704 43.53515625 12.32421875 C43.88707031 11.53394287 44.23898437 10.74366699 44.6015625 9.92944336 C45.22563346 8.51402632 45.83465962 7.09184475 46.42578125 5.66235352 C47.76970791 2.63495268 48.45116668 1.22185118 51.58984375 -0.046875 C54 0 54 0 56 2 C55.68479593 6.80324219 53.26609597 11.03983377 51.2109375 15.30859375 C50.82942535 16.11176529 50.44791321 16.91493683 50.05484009 17.7424469 C48.83343721 20.30998487 47.60418559 22.87368043 46.375 25.4375 C45.57113234 27.12672372 44.76774234 28.81617483 43.96484375 30.50585938 C42.39841592 33.79874027 40.81919078 37.08499389 39.22949219 40.36669922 C37.7934116 43.33237727 36.39416756 46.31045889 35.02832031 49.30908203 C34.42791685 50.59285879 33.82734238 51.8765556 33.2265625 53.16015625 C32.71947754 54.27140869 32.21239258 55.38266113 31.68994141 56.52758789 C30 59 30 59 27.29833984 59.86499023 C26.5398877 59.90954346 25.78143555 59.95409668 25 60 C19.99051237 50.11723437 15.12306385 40.16858327 10.3125 30.1875 C9.76634033 29.05594482 9.22018066 27.92438965 8.6574707 26.75854492 C7.09517904 23.51027919 5.54707085 20.25553583 4 17 C3.50290527 15.9785791 3.00581055 14.9571582 2.49365234 13.90478516 C2.03555176 12.94233887 1.57745117 11.97989258 1.10546875 10.98828125 C0.6983667 10.14434814 0.29126465 9.30041504 -0.12817383 8.4309082 C-1.08007397 5.77673019 -1.24134109 3.79864596 -1 1 C-0.67 0.67 -0.34 0.34 0 0 Z " fill="#F6F9FC" transform="translate(252,162)"/>
<path d="M0 0 C0.81017578 0.00128906 1.62035156 0.00257813 2.45507812 0.00390625 C8.4055896 0.0930896 8.4055896 0.0930896 10.6875 2.375 C10.15178571 5.91071429 10.15178571 5.91071429 8.6875 7.375 C5.37917633 7.54494813 2.07792893 7.67211652 -1.234375 7.71679688 C-6.19811534 7.91297411 -8.82409881 8.82668352 -12.3125 12.375 C-13.73912219 15.22824437 -13.62283868 17.20954549 -13.3125 20.375 C-11.51256226 23.07490662 -10.228727 24.9168865 -7.3125 26.375 C-5.60588411 26.50428908 -3.89697636 26.60416898 -2.1875 26.6875 C4.03790096 27.24159328 8.93427043 28.40688422 13.2890625 33.1015625 C16.78506441 38.00377747 17.67789233 42.45465476 16.6875 48.375 C14.64341656 54.28012995 11.08163412 57.06410017 6.03515625 60.5 C2.41782726 61.84822245 -1.11080346 61.66352379 -4.9375 61.625 C-6.10152344 61.63660156 -6.10152344 61.63660156 -7.2890625 61.6484375 C-13.05909734 61.62840266 -13.05909734 61.62840266 -15.3125 59.375 C-14.77678571 55.83928571 -14.77678571 55.83928571 -13.3125 54.375 C-10.21922978 54.17129684 -7.13373371 54.02889648 -4.03515625 53.9453125 C0.3447104 53.73879619 3.16709631 53.00548752 6.6875 50.375 C8.82022462 47.66062321 8.68495956 46.32673167 8.5 42.8125 C7.57337292 38.878305 7.57337292 38.878305 4.6875 36.375 C1.7338096 35.39043653 -0.41545141 35.24681574 -3.5 35.125 C-9.90655185 34.56569785 -14.36455121 32.65699398 -18.69140625 27.83984375 C-21.91764021 23.08480205 -22.30671541 17.94783902 -21.3125 12.375 C-19.25369377 7.0640087 -16.41695628 3.90943358 -11.35229492 1.16455078 C-7.62509464 -0.27815008 -3.94528361 -0.12218482 0 0 Z " fill="#F7FAFC" transform="translate(229.3125,161.625)"/>
<path d="M0 0 C70.29 0 140.58 0 213 0 C213 0.33 213 0.66 213 1 C211.73665329 1.01213028 211.73665329 1.01213028 210.44778442 1.02450562 C202.47462323 1.10274563 194.50162417 1.19012282 186.52867317 1.28752708 C182.43060759 1.33727656 178.33256515 1.38360676 174.234375 1.421875 C170.27256658 1.45899968 166.31096254 1.5054296 162.3493309 1.55806351 C160.84486383 1.57646419 159.34035319 1.59162381 157.83581924 1.60334396 C150.39645127 1.66332073 143.22260065 1.78474184 135.97653198 3.6625061 C132.74199989 4.21480419 130.05724052 3.01908017 127 2 C120.81334058 1.50107585 115.64917851 2.33697502 110 5 C107.62208021 7.04044964 107.62208021 7.04044964 106 9 C105.34 9 104.68 9 104 9 C103.484375 8.401875 102.96875 7.80375 102.4375 7.1875 C97.66737682 2.90662023 91.44904224 1.53895176 85.1015625 1.75390625 C81.86440766 2.13297829 78.73409292 2.91027778 75.58984375 3.7578125 C73 4 73 4 69.76646423 3.0350647 C66.04597269 2.01263379 62.99102383 1.72542446 59.14672852 1.68115234 C58.50197067 1.67110672 57.85721283 1.6610611 57.19291687 1.65071106 C55.08825472 1.62012852 52.98371823 1.60291454 50.87890625 1.5859375 C49.40916379 1.56720569 47.93943185 1.5476308 46.4697113 1.5272522 C42.6212894 1.47613737 38.77283272 1.43640188 34.92425537 1.39910889 C30.98913107 1.35893899 27.05414889 1.3079062 23.11914062 1.2578125 C15.41285827 1.16129807 7.70650657 1.07681587 0 1 C0 0.67 0 0.34 0 0 Z " fill="#679FCF" transform="translate(150,239)"/>
<path d="M0 0 C10.98214286 -0.66964286 10.98214286 -0.66964286 14.6875 1.9375 C17.40018826 5.52997904 17.76185534 7.44716984 17.46875 11.84375 C16.77989736 15.01247216 15.33200445 16.80517228 13 19 C9.14854957 20.92572521 4.19956748 20.04883218 0 20 C0 13.4 0 6.8 0 0 Z " fill="#2466B0" transform="translate(324,169)"/>
<path d="M0 0 C10.98214286 -0.66964286 10.98214286 -0.66964286 14.6875 1.9375 C17.40018826 5.52997904 17.76185534 7.44716984 17.46875 11.84375 C16.77989736 15.01247216 15.33200445 16.80517228 13 19 C9.14854957 20.92572521 4.19956748 20.04883218 0 20 C0 13.4 0 6.8 0 0 Z " fill="#217DC0" transform="translate(172,169)"/>
<path d="M0 0 C7.92 0 15.84 0 24 0 C23.01 0.66 22.02 1.32 21 2 C20.030625 2.66 19.06125 3.32 18.0625 4 C15.73305824 5.52126809 13.51671046 6.83844133 11 8 C10.484375 7.401875 9.96875 6.80375 9.4375 6.1875 C6.43466313 3.4926464 3.75126391 2.44279381 0 1 C0 0.67 0 0.34 0 0 Z " fill="#F3F8FB" transform="translate(243,240)"/>
<path d="M0 0 C6.93 0 13.86 0 21 0 C17.71384375 3.28615625 13.54061504 3.71017351 9 4 C5.823114 3.35156071 2.95352445 2.32694577 0 1 C0 0.67 0 0.34 0 0 Z " fill="#6AA1D0" transform="translate(275,239)"/>
<path d="M0 0 C3.96 0 7.92 0 12 0 C8 3 8 3 4.875 2.8125 C2 2 2 2 0 0 Z " fill="#EAF2F8" transform="translate(279,240)"/>
<path d="M0 0 C3.96 0 7.92 0 12 0 C9.0278901 1.9814066 7.50610679 2.7434556 4 3 C2.68 2.01 1.36 1.02 0 0 Z " fill="#EEF5FA" transform="translate(219,240)"/>
</svg>
